<svg xmlns="http://www.w3.org/2000/svg" xmlns:xlink="http://www.w3.org/1999/xlink" width="500" zoomAndPan="magnify" viewBox="0 0 375 374.999991" height="500" preserveAspectRatio="xMidYMid meet" version="1.2"><defs><clipPath id="2a812c98e6"><path d="M 0 165 L 129 165 L 129 211.90625 L 0 211.90625 Z M 0 165 "/></clipPath><clipPath id="392e931663"><path d="M 92 157.15625 L 375 157.15625 L 375 205 L 92 205 Z M 92 157.15625 "/></clipPath></defs><g id="b28c7e255c"><g clip-rule="nonzero" clip-path="url(#2a812c98e6)"><path style=" stroke:none;fill-rule:nonzero;fill:#ffffff;fill-opacity:1;" d="M 91.449219 165.972656 L 128.753906 204.671875 L 124.820312 208.480469 L 118.917969 202.390625 L 113.082031 208.035156 C 110.355469 210.636719 106.800781 212.097656 102.996094 212.03125 C 99.253906 211.96875 95.699219 210.445312 93.097656 207.71875 C 90.496094 204.992188 89.101562 201.4375 89.164062 197.695312 C 89.230469 193.953125 90.75 190.398438 93.480469 187.796875 L 97.351562 184.054688 L 101.15625 187.988281 L 97.285156 191.730469 C 95.636719 193.316406 94.683594 195.539062 94.621094 197.820312 C 94.558594 200.105469 95.445312 202.328125 97.03125 203.976562 C 98.617188 205.625 100.777344 206.578125 103.121094 206.640625 C 105.46875 206.703125 107.628906 205.816406 109.277344 204.230469 L 115.113281 198.582031 L 91.449219 174.03125 Z M 22.933594 166.925781 L 22.933594 203.722656 L 19.316406 203.722656 L 19.316406 199.789062 C 17.792969 202.644531 14.875 204.101562 11.132812 204.101562 C 5.234375 204.101562 0.664062 199.34375 0.664062 192.875 C 0.664062 186.464844 5.234375 181.707031 11.070312 181.707031 C 15.191406 181.707031 17.792969 183.738281 19.316406 186.59375 L 19.316406 166.925781 Z M 19.507812 192.875 C 19.507812 188.242188 16.460938 184.941406 11.894531 184.941406 C 7.390625 184.941406 4.472656 188.242188 4.472656 192.875 C 4.472656 197.566406 7.390625 200.929688 11.894531 200.929688 C 16.398438 200.929688 19.507812 197.566406 19.507812 192.875 Z M 46.40625 194.015625 C 46.40625 198.203125 43.742188 200.804688 39.679688 200.804688 C 36.128906 200.804688 34.351562 198.710938 34.351562 194.96875 L 34.351562 182.214844 L 30.734375 182.214844 L 30.734375 195.410156 C 30.734375 200.929688 34.035156 204.167969 38.792969 204.167969 C 42.21875 204.167969 44.945312 202.898438 46.40625 200.042969 L 46.40625 203.660156 L 50.023438 203.660156 L 50.023438 182.214844 L 46.40625 182.214844 Z M 69.878906 181.707031 C 66.453125 181.707031 63.664062 182.976562 62.265625 185.894531 L 62.265625 182.214844 L 58.648438 182.214844 L 58.648438 203.722656 L 62.265625 203.722656 L 62.265625 191.859375 C 62.265625 187.609375 64.996094 185.070312 68.992188 185.070312 C 72.609375 185.070312 74.320312 187.226562 74.320312 191.035156 L 74.320312 203.722656 L 77.9375 203.722656 L 77.9375 190.589844 C 77.9375 185.007812 74.636719 181.707031 69.878906 181.707031 Z M 69.878906 181.707031 "/></g><g clip-rule="nonzero" clip-path="url(#392e931663)"><path style=" stroke:none;fill-rule:nonzero;fill:#ffffff;fill-opacity:1;" d="M 125.519531 176.125 C 128.117188 178.851562 129.515625 182.40625 129.449219 186.148438 C 129.386719 189.890625 127.863281 193.445312 125.136719 196.046875 L 124.628906 196.488281 L 120.824219 192.621094 L 121.332031 192.175781 C 122.980469 190.589844 123.929688 188.367188 123.996094 186.085938 C 124.058594 183.800781 123.171875 181.582031 121.585938 179.929688 C 120.695312 178.980469 119.679688 178.28125 118.476562 177.835938 L 118.476562 172.191406 C 121.140625 172.761719 123.550781 174.09375 125.519531 176.125 M 95.003906 160.519531 L 92.273438 163.121094 L 96.082031 167.054688 L 98.808594 164.453125 C 101.410156 161.976562 105.535156 162.039062 108.007812 164.578125 C 110.480469 167.179688 110.417969 171.304688 107.816406 173.777344 L 105.152344 176.316406 L 108.960938 180.25 L 111.625 177.710938 C 116.382812 173.144531 116.507812 165.53125 111.941406 160.773438 C 107.375 156.078125 99.761719 155.949219 95.003906 160.519531 M 242.949219 199.152344 C 244.34375 201.882812 247.390625 204.167969 252.148438 204.167969 C 257.539062 204.167969 260.011719 201.4375 260.011719 197.757812 C 260.011719 193.570312 256.523438 192.175781 252.90625 191.160156 C 249.101562 190.082031 247.832031 189.511719 247.832031 187.480469 C 247.832031 185.832031 249.230469 184.753906 251.574219 184.753906 C 253.667969 184.753906 255.191406 185.703125 256.269531 187.226562 L 258.746094 185.324219 C 257.222656 183.167969 254.875 181.835938 251.574219 181.835938 C 247.640625 181.835938 244.535156 183.992188 244.535156 187.734375 C 244.535156 191.796875 247.640625 193.128906 251.003906 194.140625 C 254.746094 195.222656 256.652344 195.726562 256.652344 198.074219 C 256.652344 200.042969 255 201.3125 252.082031 201.3125 C 248.976562 201.3125 247.070312 199.726562 245.867188 197.695312 L 242.949219 199.152344 M 269.085938 197.1875 C 269.085938 202.261719 271.558594 204.167969 274.859375 204.167969 C 277.523438 204.167969 279.171875 203.023438 280.125 202.007812 L 278.15625 199.726562 C 277.460938 200.359375 276.699219 200.992188 275.238281 200.992188 C 273.652344 200.992188 272.703125 200.105469 272.703125 197.25 L 272.703125 185.261719 L 278.730469 185.261719 L 278.730469 182.214844 L 272.703125 182.214844 L 272.703125 166.925781 L 269.085938 166.925781 L 269.085938 182.214844 L 265.785156 182.214844 L 265.785156 185.261719 L 269.085938 185.261719 L 269.085938 197.1875 M 287.675781 203.722656 L 291.289062 203.722656 L 291.289062 192.367188 C 291.289062 187.355469 293.765625 185.132812 296.875 185.132812 C 298.207031 185.132812 299.15625 185.515625 299.855469 185.957031 L 301.25 182.785156 C 300.234375 182.089844 299.09375 181.769531 297.507812 181.769531 C 294.96875 181.769531 292.558594 182.597656 291.226562 185.894531 L 291.355469 182.214844 L 287.738281 182.214844 L 287.738281 203.722656 Z M 322.441406 191.414062 C 322.121094 187.734375 319.777344 184.816406 315.269531 184.816406 C 311.148438 184.816406 308.417969 187.480469 307.847656 191.414062 Z M 315.777344 201.058594 C 319.015625 201.058594 321.171875 199.789062 322.566406 198.203125 L 324.789062 200.359375 C 322.820312 202.578125 319.964844 204.101562 315.714844 204.101562 C 308.671875 204.101562 304.042969 199.21875 304.042969 192.9375 C 304.042969 186.65625 308.863281 181.707031 315.144531 181.707031 C 322.058594 181.707031 326.246094 187.035156 325.929688 194.140625 L 307.65625 194.140625 C 308.230469 198.265625 311.082031 201.058594 315.777344 201.058594 M 350.542969 191.414062 C 350.226562 187.734375 347.878906 184.816406 343.375 184.816406 C 339.253906 184.816406 336.523438 187.480469 335.953125 191.414062 Z M 343.882812 201.058594 C 347.117188 201.058594 349.277344 199.789062 350.671875 198.203125 L 352.890625 200.359375 C 350.925781 202.578125 348.070312 204.101562 343.820312 204.101562 C 336.777344 204.101562 332.148438 199.21875 332.148438 192.9375 C 332.148438 186.65625 336.96875 181.707031 343.25 181.707031 C 350.164062 181.707031 354.351562 187.035156 354.035156 194.140625 L 335.761719 194.140625 C 336.398438 198.265625 339.1875 201.058594 343.882812 201.058594 M 363.359375 197.1875 C 363.359375 202.261719 365.835938 204.167969 369.132812 204.167969 C 371.796875 204.167969 373.445312 203.023438 374.398438 202.007812 L 372.433594 199.726562 C 371.734375 200.359375 370.972656 200.992188 369.511719 200.992188 C 367.925781 200.992188 366.976562 200.105469 366.976562 197.25 L 366.976562 185.261719 L 373.003906 185.261719 L 373.003906 182.214844 L 366.976562 182.214844 L 366.976562 166.925781 L 363.359375 166.925781 L 363.359375 182.214844 L 360.0625 182.214844 L 360.0625 185.261719 L 363.359375 185.261719 L 363.359375 197.1875 M 153.242188 181.707031 C 149.246094 181.707031 146.515625 183.230469 144.996094 186.085938 L 144.996094 166.925781 L 141.378906 166.925781 L 141.378906 203.722656 L 144.996094 203.722656 L 144.996094 199.789062 C 146.453125 202.644531 149.433594 204.101562 153.179688 204.101562 C 159.078125 204.101562 163.644531 199.34375 163.644531 192.875 C 163.644531 186.53125 159.078125 181.707031 153.242188 181.707031 Z M 152.417969 200.929688 C 147.847656 200.929688 144.804688 197.566406 144.804688 192.875 C 144.804688 188.242188 147.847656 184.941406 152.417969 184.941406 C 156.921875 184.941406 159.839844 188.242188 159.839844 192.875 C 159.902344 197.566406 156.984375 200.929688 152.417969 200.929688 Z M 174.9375 185.640625 L 174.9375 182.214844 L 171.324219 182.214844 L 171.324219 203.722656 L 174.9375 203.722656 L 174.9375 192.367188 C 174.9375 187.355469 177.414062 185.132812 180.519531 185.132812 C 181.855469 185.132812 182.804688 185.515625 183.503906 185.957031 L 184.898438 182.785156 C 183.882812 182.089844 182.742188 181.769531 181.15625 181.769531 C 178.617188 181.769531 176.269531 182.597656 174.9375 185.640625 Z M 198.222656 181.707031 C 194.097656 181.707031 191.304688 183.292969 189.464844 185.894531 L 191.6875 187.925781 C 193.019531 186.085938 194.984375 184.816406 197.96875 184.816406 C 201.140625 184.816406 202.980469 186.402344 202.980469 190.589844 L 202.980469 191.097656 L 196.253906 191.097656 C 191.75 191.097656 188.070312 193.191406 188.070312 197.566406 C 188.070312 202.007812 191.371094 204.101562 196 204.101562 C 199.300781 204.101562 201.519531 203.214844 202.980469 201.183594 L 202.980469 203.660156 L 206.34375 203.660156 L 206.34375 190.527344 C 206.40625 184.5625 202.980469 181.707031 198.222656 181.707031 Z M 202.980469 196.554688 C 202.980469 199.34375 200.1875 201.183594 196.824219 201.183594 C 193.464844 201.183594 191.625 199.914062 191.625 197.441406 C 191.625 194.839844 193.78125 193.824219 196.507812 193.824219 L 202.980469 193.824219 Z M 232.289062 166.925781 L 232.289062 186.085938 C 230.703125 183.230469 228.101562 181.707031 224.042969 181.707031 C 218.207031 181.707031 213.636719 186.464844 213.636719 192.875 C 213.636719 199.34375 218.207031 204.101562 224.105469 204.101562 C 227.847656 204.101562 230.832031 202.644531 232.289062 199.789062 L 232.289062 203.722656 L 235.84375 203.722656 L 235.84375 166.925781 Z M 224.804688 200.929688 C 220.300781 200.929688 217.382812 197.566406 217.382812 192.875 C 217.382812 188.242188 220.300781 184.941406 224.804688 184.941406 C 229.371094 184.941406 232.417969 188.242188 232.417969 192.875 C 232.417969 197.566406 229.371094 200.929688 224.804688 200.929688 Z M 290.019531 187.863281 L 291.289062 187.863281 L 291.289062 182.152344 L 290.019531 182.152344 Z M 290.019531 187.863281 "/></g><g style="fill:#ffffff;fill-opacity:1;"><g transform="translate(198.312755, 236.2484)"><path style="stroke:none" d="M 15.359375 0 L 4.65625 -17.03125 L 4.71875 -15.65625 L 4.796875 -13.28125 L 4.796875 0 L 2.390625 0 L 2.390625 -20 L 5.53125 -20 L 16.34375 -2.859375 C 16.226562 -4.710938 16.171875 -6.050781 16.171875 -6.875 L 16.171875 -20 L 18.625 -20 L 18.625 0 Z M 15.359375 0 "/></g><g transform="translate(219.299731, 236.2484)"><path style="stroke:none" d="M 1.9375 -18.625 L 1.9375 -21.0625 L 4.5 -21.0625 L 4.5 -18.625 Z M 1.9375 0 L 1.9375 -15.359375 L 4.5 -15.359375 L 4.5 0 Z M 1.9375 0 "/></g><g transform="translate(225.756171, 236.2484)"><path style="stroke:none" d="M 7.78125 6.03125 C 6.101562 6.03125 4.765625 5.703125 3.765625 5.046875 C 2.773438 4.390625 2.140625 3.453125 1.859375 2.234375 L 4.421875 1.875 C 4.597656 2.582031 4.972656 3.128906 5.546875 3.515625 C 6.128906 3.898438 6.894531 4.09375 7.84375 4.09375 C 10.394531 4.09375 11.671875 2.597656 11.671875 -0.390625 L 11.671875 -2.859375 L 11.640625 -2.859375 C 11.148438 -1.867188 10.484375 -1.125 9.640625 -0.625 C 8.804688 -0.132812 7.828125 0.109375 6.703125 0.109375 C 4.816406 0.109375 3.429688 -0.515625 2.546875 -1.765625 C 1.660156 -3.015625 1.21875 -4.976562 1.21875 -7.65625 C 1.21875 -10.363281 1.691406 -12.363281 2.640625 -13.65625 C 3.597656 -14.945312 5.046875 -15.59375 6.984375 -15.59375 C 8.066406 -15.59375 9.007812 -15.34375 9.8125 -14.84375 C 10.613281 -14.351562 11.234375 -13.648438 11.671875 -12.734375 L 11.6875 -12.734375 C 11.6875 -13.015625 11.707031 -13.503906 11.75 -14.203125 C 11.789062 -14.898438 11.828125 -15.285156 11.859375 -15.359375 L 14.296875 -15.359375 C 14.234375 -14.847656 14.203125 -13.785156 14.203125 -12.171875 L 14.203125 -0.4375 C 14.203125 3.875 12.0625 6.03125 7.78125 6.03125 Z M 11.671875 -7.671875 C 11.671875 -8.921875 11.5 -10 11.15625 -10.90625 C 10.8125 -11.8125 10.328125 -12.5 9.703125 -12.96875 C 9.085938 -13.445312 8.390625 -13.6875 7.609375 -13.6875 C 6.296875 -13.6875 5.34375 -13.210938 4.75 -12.265625 C 4.15625 -11.328125 3.859375 -9.796875 3.859375 -7.671875 C 3.859375 -5.578125 4.132812 -4.070312 4.6875 -3.15625 C 5.25 -2.238281 6.207031 -1.78125 7.5625 -1.78125 C 8.363281 -1.78125 9.078125 -2.015625 9.703125 -2.484375 C 10.328125 -2.953125 10.8125 -3.628906 11.15625 -4.515625 C 11.5 -5.398438 11.671875 -6.453125 11.671875 -7.671875 Z M 11.671875 -7.671875 "/></g><g transform="translate(241.918555, 236.2484)"><path style="stroke:none" d="M 3.921875 -7.140625 C 3.921875 -5.378906 4.285156 -4.019531 5.015625 -3.0625 C 5.742188 -2.101562 6.804688 -1.625 8.203125 -1.625 C 9.304688 -1.625 10.191406 -1.847656 10.859375 -2.296875 C 11.523438 -2.742188 11.976562 -3.304688 12.21875 -3.984375 L 14.453125 -3.34375 C 13.535156 -0.925781 11.453125 0.28125 8.203125 0.28125 C 5.929688 0.28125 4.203125 -0.394531 3.015625 -1.75 C 1.828125 -3.101562 1.234375 -5.113281 1.234375 -7.78125 C 1.234375 -10.3125 1.828125 -12.253906 3.015625 -13.609375 C 4.203125 -14.960938 5.898438 -15.640625 8.109375 -15.640625 C 12.617188 -15.640625 14.875 -12.921875 14.875 -7.484375 L 14.875 -7.140625 Z M 12.234375 -9.09375 C 12.085938 -10.707031 11.671875 -11.882812 10.984375 -12.625 C 10.304688 -13.375 9.332031 -13.75 8.0625 -13.75 C 6.820312 -13.75 5.835938 -13.332031 5.109375 -12.5 C 4.390625 -11.675781 4 -10.539062 3.9375 -9.09375 Z M 12.234375 -9.09375 "/></g><g transform="translate(258.080939, 236.2484)"><path style="stroke:none" d="M 2.015625 0 L 2.015625 -11.78125 C 2.015625 -12.851562 1.988281 -14.046875 1.9375 -15.359375 L 4.34375 -15.359375 C 4.414062 -13.617188 4.453125 -12.570312 4.453125 -12.21875 L 4.515625 -12.21875 C 4.921875 -13.53125 5.390625 -14.425781 5.921875 -14.90625 C 6.453125 -15.394531 7.195312 -15.640625 8.15625 -15.640625 C 8.5 -15.640625 8.847656 -15.59375 9.203125 -15.5 L 9.203125 -13.15625 C 8.859375 -13.25 8.398438 -13.296875 7.828125 -13.296875 C 6.773438 -13.296875 5.96875 -12.835938 5.40625 -11.921875 C 4.84375 -11.015625 4.5625 -9.707031 4.5625 -8 L 4.5625 0 Z M 2.015625 0 "/></g><g transform="translate(267.758504, 236.2484)"><path style="stroke:none" d="M 1.9375 -18.625 L 1.9375 -21.0625 L 4.5 -21.0625 L 4.5 -18.625 Z M 1.9375 0 L 1.9375 -15.359375 L 4.5 -15.359375 L 4.5 0 Z M 1.9375 0 "/></g><g transform="translate(274.214943, 236.2484)"><path style="stroke:none" d="M 5.875 0.28125 C 4.332031 0.28125 3.171875 -0.125 2.390625 -0.9375 C 1.617188 -1.75 1.234375 -2.863281 1.234375 -4.28125 C 1.234375 -5.875 1.753906 -7.09375 2.796875 -7.9375 C 3.847656 -8.789062 5.535156 -9.25 7.859375 -9.3125 L 11.3125 -9.359375 L 11.3125 -10.203125 C 11.3125 -11.453125 11.046875 -12.34375 10.515625 -12.875 C 9.984375 -13.414062 9.148438 -13.6875 8.015625 -13.6875 C 6.867188 -13.6875 6.035156 -13.492188 5.515625 -13.109375 C 4.992188 -12.722656 4.679688 -12.101562 4.578125 -11.25 L 1.921875 -11.5 C 2.347656 -14.257812 4.398438 -15.640625 8.078125 -15.640625 C 10.003906 -15.640625 11.453125 -15.195312 12.421875 -14.3125 C 13.398438 -13.425781 13.890625 -12.144531 13.890625 -10.46875 L 13.890625 -3.859375 C 13.890625 -3.097656 13.988281 -2.523438 14.1875 -2.140625 C 14.382812 -1.765625 14.765625 -1.578125 15.328125 -1.578125 C 15.566406 -1.578125 15.84375 -1.609375 16.15625 -1.671875 L 16.15625 -0.078125 C 15.519531 0.0664062 14.863281 0.140625 14.1875 0.140625 C 13.238281 0.140625 12.550781 -0.101562 12.125 -0.59375 C 11.695312 -1.09375 11.453125 -1.875 11.390625 -2.9375 L 11.3125 -2.9375 C 10.65625 -1.757812 9.894531 -0.925781 9.03125 -0.4375 C 8.164062 0.0390625 7.113281 0.28125 5.875 0.28125 Z M 6.453125 -1.625 C 7.390625 -1.625 8.222656 -1.835938 8.953125 -2.265625 C 9.679688 -2.691406 10.253906 -3.273438 10.671875 -4.015625 C 11.097656 -4.765625 11.3125 -5.53125 11.3125 -6.3125 L 11.3125 -7.578125 L 8.515625 -7.515625 C 7.316406 -7.503906 6.40625 -7.382812 5.78125 -7.15625 C 5.164062 -6.925781 4.691406 -6.570312 4.359375 -6.09375 C 4.023438 -5.625 3.859375 -5.007812 3.859375 -4.25 C 3.859375 -3.414062 4.082031 -2.769531 4.53125 -2.3125 C 4.976562 -1.851562 5.617188 -1.625 6.453125 -1.625 Z M 6.453125 -1.625 "/></g></g></g></svg>