<svg xmlns="http://www.w3.org/2000/svg" xmlns:xlink="http://www.w3.org/1999/xlink" width="167" zoomAndPan="magnify" viewBox="0 0 125.25 36.000001" height="48" preserveAspectRatio="xMidYMid meet" version="1.2"><defs><clipPath id="dd23377326"><path d="M 33 13 L 54 13 L 54 21.34375 L 33 21.34375 Z M 33 13 "/></clipPath><clipPath id="ae94c54e14"><path d="M 47 12.585938 L 91.371094 12.585938 L 91.371094 21 L 47 21 Z M 47 12.585938 "/></clipPath></defs><g id="ab98f2498a"><g clip-rule="nonzero" clip-path="url(#dd23377326)"><path style=" stroke:none;fill-rule:nonzero;fill:#ffffff;fill-opacity:1;" d="M 47.238281 13.996094 L 53.042969 20.1875 L 52.429688 20.792969 L 51.511719 19.820312 L 50.605469 20.722656 C 50.179688 21.140625 49.625 21.371094 49.035156 21.363281 C 48.453125 21.351562 47.898438 21.109375 47.496094 20.671875 C 47.089844 20.238281 46.871094 19.667969 46.882812 19.070312 C 46.890625 18.472656 47.128906 17.902344 47.554688 17.488281 L 48.15625 16.886719 L 48.746094 17.515625 L 48.144531 18.117188 C 47.890625 18.371094 47.742188 18.722656 47.730469 19.089844 C 47.722656 19.457031 47.859375 19.808594 48.105469 20.074219 C 48.351562 20.335938 48.6875 20.488281 49.054688 20.5 C 49.417969 20.511719 49.753906 20.367188 50.011719 20.113281 L 50.917969 19.210938 L 47.238281 15.285156 Z M 36.578125 14.148438 L 36.578125 20.035156 L 36.015625 20.035156 L 36.015625 19.40625 C 35.777344 19.859375 35.324219 20.09375 34.742188 20.09375 C 33.824219 20.09375 33.113281 19.332031 33.113281 18.296875 C 33.113281 17.273438 33.824219 16.511719 34.730469 16.511719 C 35.375 16.511719 35.777344 16.835938 36.015625 17.292969 L 36.015625 14.148438 Z M 36.042969 18.296875 C 36.042969 17.558594 35.570312 17.03125 34.859375 17.03125 C 34.160156 17.03125 33.703125 17.558594 33.703125 18.296875 C 33.703125 19.050781 34.160156 19.585938 34.859375 19.585938 C 35.5625 19.585938 36.042969 19.050781 36.042969 18.296875 Z M 40.230469 18.480469 C 40.230469 19.152344 39.816406 19.566406 39.183594 19.566406 C 38.628906 19.566406 38.355469 19.230469 38.355469 18.632812 L 38.355469 16.59375 L 37.792969 16.59375 L 37.792969 18.703125 C 37.792969 19.585938 38.304688 20.105469 39.046875 20.105469 C 39.578125 20.105469 40.003906 19.902344 40.230469 19.445312 L 40.230469 20.023438 L 40.792969 20.023438 L 40.792969 16.59375 L 40.230469 16.59375 Z M 43.882812 16.511719 C 43.347656 16.511719 42.914062 16.714844 42.695312 17.183594 L 42.695312 16.59375 L 42.132812 16.59375 L 42.132812 20.035156 L 42.695312 20.035156 L 42.695312 18.136719 C 42.695312 17.457031 43.121094 17.050781 43.742188 17.050781 C 44.304688 17.050781 44.574219 17.394531 44.574219 18.003906 L 44.574219 20.035156 L 45.136719 20.035156 L 45.136719 17.933594 C 45.136719 17.039062 44.621094 16.511719 43.882812 16.511719 Z M 43.882812 16.511719 "/></g><g clip-rule="nonzero" clip-path="url(#ae94c54e14)"><path style=" stroke:none;fill-rule:nonzero;fill:#ffffff;fill-opacity:1;" d="M 52.539062 15.621094 C 52.941406 16.054688 53.160156 16.625 53.148438 17.222656 C 53.140625 17.820312 52.902344 18.390625 52.480469 18.804688 L 52.398438 18.875 L 51.808594 18.257812 L 51.886719 18.1875 C 52.144531 17.933594 52.292969 17.578125 52.300781 17.210938 C 52.3125 16.847656 52.171875 16.492188 51.925781 16.226562 C 51.789062 16.078125 51.628906 15.964844 51.441406 15.894531 L 51.441406 14.992188 C 51.855469 15.082031 52.230469 15.292969 52.539062 15.621094 M 47.789062 13.125 L 47.367188 13.539062 L 47.957031 14.167969 L 48.382812 13.753906 C 48.789062 13.355469 49.429688 13.367188 49.8125 13.773438 C 50.199219 14.1875 50.1875 14.847656 49.785156 15.246094 L 49.371094 15.648438 L 49.960938 16.277344 L 50.375 15.875 C 51.117188 15.144531 51.136719 13.925781 50.425781 13.164062 C 49.714844 12.414062 48.53125 12.394531 47.789062 13.125 M 70.808594 19.304688 C 71.027344 19.738281 71.5 20.105469 72.242188 20.105469 C 73.078125 20.105469 73.464844 19.667969 73.464844 19.078125 C 73.464844 18.410156 72.921875 18.1875 72.359375 18.023438 C 71.765625 17.851562 71.570312 17.761719 71.570312 17.4375 C 71.570312 17.171875 71.785156 17 72.152344 17 C 72.476562 17 72.714844 17.152344 72.882812 17.394531 L 73.265625 17.089844 C 73.03125 16.746094 72.664062 16.53125 72.152344 16.53125 C 71.539062 16.53125 71.054688 16.878906 71.054688 17.476562 C 71.054688 18.125 71.539062 18.339844 72.0625 18.5 C 72.644531 18.671875 72.941406 18.753906 72.941406 19.128906 C 72.941406 19.445312 72.683594 19.648438 72.230469 19.648438 C 71.746094 19.648438 71.449219 19.394531 71.261719 19.070312 L 70.808594 19.304688 M 74.875 18.988281 C 74.875 19.800781 75.261719 20.105469 75.773438 20.105469 C 76.1875 20.105469 76.445312 19.921875 76.59375 19.757812 L 76.289062 19.394531 C 76.179688 19.496094 76.058594 19.597656 75.832031 19.597656 C 75.585938 19.597656 75.4375 19.457031 75.4375 19 L 75.4375 17.082031 L 76.375 17.082031 L 76.375 16.59375 L 75.4375 16.59375 L 75.4375 14.148438 L 74.875 14.148438 L 74.875 16.59375 L 74.363281 16.59375 L 74.363281 17.082031 L 74.875 17.082031 L 74.875 18.988281 M 77.769531 20.035156 L 78.332031 20.035156 L 78.332031 18.21875 C 78.332031 17.414062 78.714844 17.058594 79.199219 17.058594 C 79.40625 17.058594 79.554688 17.121094 79.664062 17.191406 L 79.878906 16.683594 C 79.722656 16.574219 79.542969 16.523438 79.296875 16.523438 C 78.902344 16.523438 78.527344 16.65625 78.320312 17.183594 L 78.339844 16.59375 L 77.777344 16.59375 L 77.777344 20.035156 Z M 83.175781 18.066406 C 83.128906 17.476562 82.761719 17.007812 82.0625 17.007812 C 81.421875 17.007812 80.996094 17.4375 80.90625 18.066406 Z M 82.140625 19.605469 C 82.644531 19.605469 82.980469 19.40625 83.195312 19.152344 L 83.542969 19.496094 C 83.238281 19.851562 82.792969 20.09375 82.132812 20.09375 C 81.035156 20.09375 80.316406 19.3125 80.316406 18.308594 C 80.316406 17.304688 81.066406 16.511719 82.042969 16.511719 C 83.117188 16.511719 83.769531 17.363281 83.71875 18.5 L 80.878906 18.5 C 80.964844 19.160156 81.410156 19.605469 82.140625 19.605469 M 87.550781 18.066406 C 87.5 17.476562 87.136719 17.007812 86.433594 17.007812 C 85.792969 17.007812 85.367188 17.4375 85.28125 18.066406 Z M 86.511719 19.605469 C 87.015625 19.605469 87.351562 19.40625 87.570312 19.152344 L 87.914062 19.496094 C 87.609375 19.851562 87.164062 20.09375 86.503906 20.09375 C 85.40625 20.09375 84.6875 19.3125 84.6875 18.308594 C 84.6875 17.304688 85.4375 16.511719 86.414062 16.511719 C 87.492188 16.511719 88.140625 17.363281 88.09375 18.5 L 85.25 18.5 C 85.347656 19.160156 85.78125 19.605469 86.511719 19.605469 M 89.542969 18.988281 C 89.542969 19.800781 89.929688 20.105469 90.441406 20.105469 C 90.855469 20.105469 91.113281 19.921875 91.261719 19.757812 L 90.957031 19.394531 C 90.847656 19.496094 90.726562 19.597656 90.5 19.597656 C 90.253906 19.597656 90.105469 19.457031 90.105469 19 L 90.105469 17.082031 L 91.042969 17.082031 L 91.042969 16.59375 L 90.105469 16.59375 L 90.105469 14.148438 L 89.542969 14.148438 L 89.542969 16.59375 L 89.03125 16.59375 L 89.03125 17.082031 L 89.542969 17.082031 L 89.542969 18.988281 M 56.851562 16.511719 C 56.230469 16.511719 55.804688 16.757812 55.570312 17.210938 L 55.570312 14.148438 L 55.007812 14.148438 L 55.007812 20.035156 L 55.570312 20.035156 L 55.570312 19.40625 C 55.796875 19.859375 56.257812 20.09375 56.84375 20.09375 C 57.761719 20.09375 58.472656 19.332031 58.472656 18.296875 C 58.472656 17.285156 57.761719 16.511719 56.851562 16.511719 Z M 56.722656 19.585938 C 56.011719 19.585938 55.539062 19.050781 55.539062 18.296875 C 55.539062 17.558594 56.011719 17.03125 56.722656 17.03125 C 57.425781 17.03125 57.878906 17.558594 57.878906 18.296875 C 57.886719 19.050781 57.433594 19.585938 56.722656 19.585938 Z M 60.226562 17.140625 L 60.226562 16.59375 L 59.664062 16.59375 L 59.664062 20.035156 L 60.226562 20.035156 L 60.226562 18.21875 C 60.226562 17.414062 60.613281 17.058594 61.097656 17.058594 C 61.304688 17.058594 61.453125 17.121094 61.558594 17.191406 L 61.777344 16.683594 C 61.621094 16.574219 61.441406 16.523438 61.195312 16.523438 C 60.800781 16.523438 60.433594 16.65625 60.226562 17.140625 Z M 63.851562 16.511719 C 63.207031 16.511719 62.773438 16.765625 62.488281 17.183594 L 62.832031 17.507812 C 63.039062 17.210938 63.347656 17.007812 63.8125 17.007812 C 64.304688 17.007812 64.589844 17.261719 64.589844 17.933594 L 64.589844 18.015625 L 63.542969 18.015625 C 62.84375 18.015625 62.269531 18.347656 62.269531 19.050781 C 62.269531 19.757812 62.785156 20.09375 63.503906 20.09375 C 64.019531 20.09375 64.363281 19.953125 64.589844 19.628906 L 64.589844 20.023438 L 65.113281 20.023438 L 65.113281 17.921875 C 65.125 16.96875 64.589844 16.511719 63.851562 16.511719 Z M 64.589844 18.886719 C 64.589844 19.332031 64.15625 19.628906 63.632812 19.628906 C 63.109375 19.628906 62.824219 19.425781 62.824219 19.027344 C 62.824219 18.613281 63.160156 18.449219 63.582031 18.449219 L 64.589844 18.449219 Z M 69.152344 14.148438 L 69.152344 17.210938 C 68.902344 16.757812 68.5 16.511719 67.867188 16.511719 C 66.960938 16.511719 66.25 17.273438 66.25 18.296875 C 66.25 19.332031 66.960938 20.09375 67.878906 20.09375 C 68.460938 20.09375 68.925781 19.859375 69.152344 19.40625 L 69.152344 20.035156 L 69.703125 20.035156 L 69.703125 14.148438 Z M 67.984375 19.585938 C 67.285156 19.585938 66.832031 19.050781 66.832031 18.296875 C 66.832031 17.558594 67.285156 17.03125 67.984375 17.03125 C 68.695312 17.03125 69.171875 17.558594 69.171875 18.296875 C 69.171875 19.050781 68.695312 19.585938 67.984375 19.585938 Z M 78.132812 17.496094 L 78.332031 17.496094 L 78.332031 16.582031 L 78.132812 16.582031 Z M 78.132812 17.496094 "/></g><g style="fill:#ffffff;fill-opacity:1;"><g transform="translate(62.260133, 23.132615)"><path style="stroke:none" d="M 1.265625 0 L 0.390625 -1.40625 L 0.390625 0 L 0.203125 0 L 0.203125 -1.640625 L 0.453125 -1.640625 L 1.34375 -0.234375 C 1.332031 -0.390625 1.328125 -0.5 1.328125 -0.5625 L 1.328125 -1.640625 L 1.53125 -1.640625 L 1.53125 0 Z M 1.265625 0 "/></g><g transform="translate(63.984998, 23.132615)"><path style="stroke:none" d="M 0.15625 -1.53125 L 0.15625 -1.734375 L 0.375 -1.734375 L 0.375 -1.53125 Z M 0.15625 0 L 0.15625 -1.265625 L 0.375 -1.265625 L 0.375 0 Z M 0.15625 0 "/></g><g transform="translate(64.515636, 23.132615)"><path style="stroke:none" d="M 0.640625 0.5 C 0.503906 0.5 0.394531 0.46875 0.3125 0.40625 C 0.226562 0.351562 0.175781 0.28125 0.15625 0.1875 L 0.359375 0.15625 C 0.378906 0.207031 0.410156 0.25 0.453125 0.28125 C 0.503906 0.320312 0.566406 0.34375 0.640625 0.34375 C 0.847656 0.34375 0.953125 0.21875 0.953125 -0.03125 L 0.953125 -0.234375 C 0.910156 -0.148438 0.851562 -0.0859375 0.78125 -0.046875 C 0.71875 -0.00390625 0.640625 0.015625 0.546875 0.015625 C 0.390625 0.015625 0.273438 -0.0351562 0.203125 -0.140625 C 0.128906 -0.242188 0.09375 -0.40625 0.09375 -0.625 C 0.09375 -0.851562 0.128906 -1.019531 0.203125 -1.125 C 0.285156 -1.226562 0.410156 -1.28125 0.578125 -1.28125 C 0.660156 -1.28125 0.734375 -1.257812 0.796875 -1.21875 C 0.867188 -1.175781 0.921875 -1.117188 0.953125 -1.046875 L 0.96875 -1.046875 C 0.96875 -1.066406 0.96875 -1.101562 0.96875 -1.15625 C 0.96875 -1.21875 0.96875 -1.253906 0.96875 -1.265625 L 1.171875 -1.265625 C 1.171875 -1.222656 1.171875 -1.132812 1.171875 -1 L 1.171875 -0.03125 C 1.171875 0.320312 0.992188 0.5 0.640625 0.5 Z M 0.953125 -0.625 C 0.953125 -0.726562 0.9375 -0.816406 0.90625 -0.890625 C 0.882812 -0.972656 0.847656 -1.03125 0.796875 -1.0625 C 0.742188 -1.101562 0.6875 -1.125 0.625 -1.125 C 0.519531 -1.125 0.441406 -1.082031 0.390625 -1 C 0.335938 -0.925781 0.3125 -0.800781 0.3125 -0.625 C 0.3125 -0.457031 0.332031 -0.332031 0.375 -0.25 C 0.425781 -0.175781 0.507812 -0.140625 0.625 -0.140625 C 0.6875 -0.140625 0.742188 -0.160156 0.796875 -0.203125 C 0.847656 -0.242188 0.882812 -0.300781 0.90625 -0.375 C 0.9375 -0.445312 0.953125 -0.53125 0.953125 -0.625 Z M 0.953125 -0.625 "/></g><g transform="translate(65.84398, 23.132615)"><path style="stroke:none" d="M 0.328125 -0.59375 C 0.328125 -0.445312 0.351562 -0.332031 0.40625 -0.25 C 0.46875 -0.175781 0.554688 -0.140625 0.671875 -0.140625 C 0.765625 -0.140625 0.835938 -0.15625 0.890625 -0.1875 C 0.941406 -0.226562 0.976562 -0.273438 1 -0.328125 L 1.1875 -0.28125 C 1.113281 -0.0820312 0.941406 0.015625 0.671875 0.015625 C 0.484375 0.015625 0.335938 -0.0351562 0.234375 -0.140625 C 0.140625 -0.253906 0.09375 -0.421875 0.09375 -0.640625 C 0.09375 -0.847656 0.140625 -1.003906 0.234375 -1.109375 C 0.335938 -1.222656 0.484375 -1.28125 0.671875 -1.28125 C 1.035156 -1.28125 1.21875 -1.054688 1.21875 -0.609375 L 1.21875 -0.59375 Z M 1 -0.75 C 0.988281 -0.882812 0.957031 -0.976562 0.90625 -1.03125 C 0.851562 -1.09375 0.769531 -1.125 0.65625 -1.125 C 0.5625 -1.125 0.484375 -1.085938 0.421875 -1.015625 C 0.359375 -0.953125 0.328125 -0.863281 0.328125 -0.75 Z M 1 -0.75 "/></g><g transform="translate(67.172324, 23.132615)"><path style="stroke:none" d="M 0.171875 0 L 0.171875 -0.96875 C 0.171875 -1.0625 0.164062 -1.160156 0.15625 -1.265625 L 0.359375 -1.265625 C 0.359375 -1.117188 0.359375 -1.03125 0.359375 -1 L 0.375 -1 C 0.40625 -1.113281 0.441406 -1.1875 0.484375 -1.21875 C 0.523438 -1.257812 0.585938 -1.28125 0.671875 -1.28125 C 0.703125 -1.28125 0.726562 -1.28125 0.75 -1.28125 L 0.75 -1.078125 C 0.726562 -1.085938 0.691406 -1.09375 0.640625 -1.09375 C 0.554688 -1.09375 0.488281 -1.054688 0.4375 -0.984375 C 0.394531 -0.910156 0.375 -0.800781 0.375 -0.65625 L 0.375 0 Z M 0.171875 0 "/></g><g transform="translate(67.967698, 23.132615)"><path style="stroke:none" d="M 0.15625 -1.53125 L 0.15625 -1.734375 L 0.375 -1.734375 L 0.375 -1.53125 Z M 0.15625 0 L 0.15625 -1.265625 L 0.375 -1.265625 L 0.375 0 Z M 0.15625 0 "/></g><g transform="translate(68.498336, 23.132615)"><path style="stroke:none" d="M 0.484375 0.015625 C 0.359375 0.015625 0.257812 -0.015625 0.1875 -0.078125 C 0.125 -0.140625 0.09375 -0.234375 0.09375 -0.359375 C 0.09375 -0.484375 0.132812 -0.582031 0.21875 -0.65625 C 0.3125 -0.726562 0.453125 -0.765625 0.640625 -0.765625 L 0.9375 -0.765625 L 0.9375 -0.84375 C 0.9375 -0.945312 0.910156 -1.019531 0.859375 -1.0625 C 0.816406 -1.101562 0.75 -1.125 0.65625 -1.125 C 0.5625 -1.125 0.492188 -1.109375 0.453125 -1.078125 C 0.410156 -1.046875 0.382812 -0.992188 0.375 -0.921875 L 0.15625 -0.953125 C 0.195312 -1.171875 0.367188 -1.28125 0.671875 -1.28125 C 0.828125 -1.28125 0.941406 -1.242188 1.015625 -1.171875 C 1.097656 -1.097656 1.140625 -0.992188 1.140625 -0.859375 L 1.140625 -0.3125 C 1.140625 -0.25 1.144531 -0.203125 1.15625 -0.171875 C 1.175781 -0.140625 1.210938 -0.125 1.265625 -0.125 C 1.285156 -0.125 1.304688 -0.128906 1.328125 -0.140625 L 1.328125 0 C 1.273438 0.0078125 1.222656 0.015625 1.171875 0.015625 C 1.085938 0.015625 1.023438 -0.00390625 0.984375 -0.046875 C 0.953125 -0.0859375 0.9375 -0.148438 0.9375 -0.234375 C 0.875 -0.140625 0.804688 -0.0703125 0.734375 -0.03125 C 0.671875 0 0.585938 0.015625 0.484375 0.015625 Z M 0.53125 -0.140625 C 0.601562 -0.140625 0.671875 -0.15625 0.734375 -0.1875 C 0.796875 -0.21875 0.84375 -0.265625 0.875 -0.328125 C 0.914062 -0.390625 0.9375 -0.453125 0.9375 -0.515625 L 0.9375 -0.625 L 0.703125 -0.625 C 0.597656 -0.613281 0.519531 -0.597656 0.46875 -0.578125 C 0.425781 -0.566406 0.390625 -0.539062 0.359375 -0.5 C 0.328125 -0.457031 0.3125 -0.40625 0.3125 -0.34375 C 0.3125 -0.28125 0.328125 -0.226562 0.359375 -0.1875 C 0.398438 -0.15625 0.457031 -0.140625 0.53125 -0.140625 Z M 0.53125 -0.140625 "/></g></g></g></svg>