<svg xmlns="http://www.w3.org/2000/svg" xmlns:xlink="http://www.w3.org/1999/xlink" width="100" zoomAndPan="magnify" viewBox="0 0 75 74.999997" height="100" preserveAspectRatio="xMidYMid meet" version="1.2"><defs><clipPath id="1dd4bf8d31"><path d="M 0 33 L 26 33 L 26 42.679688 L 0 42.679688 Z M 0 33 "/></clipPath><clipPath id="c50a43030e"><path d="M 18 31.429688 L 75 31.429688 L 75 42 L 18 42 Z M 18 31.429688 "/></clipPath></defs><g id="57c38c1644"><g clip-rule="nonzero" clip-path="url(#1dd4bf8d31)"><path style=" stroke:none;fill-rule:nonzero;fill:#ffffff;fill-opacity:1;" d="M 18.296875 33.242188 L 25.753906 41.195312 L 24.96875 41.976562 L 23.789062 40.726562 L 22.621094 41.886719 C 22.078125 42.421875 21.367188 42.71875 20.605469 42.707031 C 19.859375 42.695312 19.148438 42.382812 18.628906 41.820312 C 18.109375 41.261719 17.828125 40.53125 17.839844 39.761719 C 17.855469 38.992188 18.160156 38.261719 18.703125 37.726562 L 19.476562 36.957031 L 20.238281 37.765625 L 19.464844 38.535156 C 19.136719 38.863281 18.945312 39.316406 18.933594 39.789062 C 18.917969 40.257812 19.097656 40.710938 19.414062 41.050781 C 19.730469 41.390625 20.164062 41.585938 20.632812 41.597656 C 21.101562 41.613281 21.53125 41.429688 21.863281 41.105469 L 23.027344 39.945312 L 18.296875 34.898438 Z M 4.601562 33.4375 L 4.601562 41 L 3.878906 41 L 3.878906 40.191406 C 3.574219 40.777344 2.988281 41.078125 2.242188 41.078125 C 1.0625 41.078125 0.148438 40.101562 0.148438 38.769531 C 0.148438 37.453125 1.0625 36.476562 2.230469 36.476562 C 3.054688 36.476562 3.574219 36.894531 3.878906 37.480469 L 3.878906 33.4375 Z M 3.914062 38.769531 C 3.914062 37.820312 3.308594 37.140625 2.394531 37.140625 C 1.492188 37.140625 0.910156 37.820312 0.910156 38.769531 C 0.910156 39.734375 1.492188 40.425781 2.394531 40.425781 C 3.292969 40.425781 3.914062 39.734375 3.914062 38.769531 Z M 9.292969 39.003906 C 9.292969 39.867188 8.761719 40.398438 7.949219 40.398438 C 7.238281 40.398438 6.882812 39.96875 6.882812 39.199219 L 6.882812 36.582031 L 6.160156 36.582031 L 6.160156 39.292969 C 6.160156 40.425781 6.820312 41.089844 7.769531 41.089844 C 8.457031 41.089844 9 40.832031 9.292969 40.242188 L 9.292969 40.988281 L 10.015625 40.988281 L 10.015625 36.582031 L 9.292969 36.582031 Z M 13.984375 36.476562 C 13.300781 36.476562 12.742188 36.738281 12.464844 37.335938 L 12.464844 36.582031 L 11.742188 36.582031 L 11.742188 41 L 12.464844 41 L 12.464844 38.5625 C 12.464844 37.6875 13.007812 37.167969 13.808594 37.167969 C 14.53125 37.167969 14.875 37.609375 14.875 38.390625 L 14.875 41 L 15.597656 41 L 15.597656 38.300781 C 15.597656 37.152344 14.9375 36.476562 13.984375 36.476562 Z M 13.984375 36.476562 "/></g><g clip-rule="nonzero" clip-path="url(#c50a43030e)"><path style=" stroke:none;fill-rule:nonzero;fill:#ffffff;fill-opacity:1;" d="M 25.109375 35.328125 C 25.628906 35.890625 25.90625 36.621094 25.894531 37.386719 C 25.882812 38.15625 25.578125 38.886719 25.03125 39.421875 L 24.929688 39.511719 L 24.171875 38.71875 L 24.273438 38.628906 C 24.601562 38.300781 24.792969 37.84375 24.804688 37.375 C 24.816406 36.90625 24.640625 36.449219 24.324219 36.109375 C 24.144531 35.914062 23.941406 35.773438 23.699219 35.679688 L 23.699219 34.519531 C 24.234375 34.636719 24.714844 34.910156 25.109375 35.328125 M 19.007812 32.121094 L 18.464844 32.65625 L 19.222656 33.464844 L 19.769531 32.929688 C 20.289062 32.421875 21.113281 32.433594 21.609375 32.957031 C 22.101562 33.492188 22.089844 34.339844 21.570312 34.847656 L 21.039062 35.367188 L 21.796875 36.175781 L 22.332031 35.65625 C 23.28125 34.714844 23.308594 33.152344 22.394531 32.175781 C 21.480469 31.210938 19.960938 31.183594 19.007812 32.121094 M 48.585938 40.0625 C 48.863281 40.621094 49.472656 41.089844 50.425781 41.089844 C 51.5 41.089844 51.996094 40.53125 51.996094 39.773438 C 51.996094 38.914062 51.300781 38.628906 50.574219 38.417969 C 49.816406 38.195312 49.5625 38.078125 49.5625 37.664062 C 49.5625 37.324219 49.839844 37.101562 50.308594 37.101562 C 50.726562 37.101562 51.03125 37.296875 51.25 37.609375 L 51.742188 37.21875 C 51.4375 36.777344 50.96875 36.503906 50.308594 36.503906 C 49.523438 36.503906 48.902344 36.945312 48.902344 37.714844 C 48.902344 38.546875 49.523438 38.824219 50.195312 39.03125 C 50.945312 39.253906 51.324219 39.355469 51.324219 39.839844 C 51.324219 40.242188 50.996094 40.503906 50.410156 40.503906 C 49.789062 40.503906 49.410156 40.179688 49.167969 39.761719 L 48.585938 40.0625 M 53.808594 39.65625 C 53.808594 40.699219 54.304688 41.089844 54.964844 41.089844 C 55.496094 41.089844 55.828125 40.855469 56.015625 40.648438 L 55.625 40.179688 C 55.484375 40.308594 55.332031 40.4375 55.039062 40.4375 C 54.722656 40.4375 54.53125 40.257812 54.53125 39.667969 L 54.53125 37.207031 L 55.738281 37.207031 L 55.738281 36.582031 L 54.53125 36.582031 L 54.53125 33.4375 L 53.808594 33.4375 L 53.808594 36.582031 L 53.152344 36.582031 L 53.152344 37.207031 L 53.808594 37.207031 L 53.808594 39.65625 M 57.527344 41 L 58.25 41 L 58.25 38.667969 C 58.25 37.636719 58.742188 37.179688 59.367188 37.179688 C 59.632812 37.179688 59.820312 37.257812 59.960938 37.347656 L 60.242188 36.699219 C 60.039062 36.554688 59.808594 36.488281 59.492188 36.488281 C 58.984375 36.488281 58.503906 36.660156 58.238281 37.335938 L 58.261719 36.582031 L 57.539062 36.582031 L 57.539062 41 Z M 64.476562 38.46875 C 64.414062 37.714844 63.945312 37.113281 63.042969 37.113281 C 62.21875 37.113281 61.671875 37.664062 61.558594 38.46875 Z M 63.144531 40.453125 C 63.792969 40.453125 64.222656 40.191406 64.5 39.867188 L 64.945312 40.308594 C 64.550781 40.765625 63.980469 41.078125 63.132812 41.078125 C 61.722656 41.078125 60.796875 40.074219 60.796875 38.785156 C 60.796875 37.492188 61.761719 36.476562 63.019531 36.476562 C 64.398438 36.476562 65.238281 37.570312 65.175781 39.03125 L 61.519531 39.03125 C 61.636719 39.878906 62.207031 40.453125 63.144531 40.453125 M 70.09375 38.46875 C 70.03125 37.714844 69.5625 37.113281 68.660156 37.113281 C 67.835938 37.113281 67.292969 37.664062 67.179688 38.46875 Z M 68.761719 40.453125 C 69.410156 40.453125 69.839844 40.191406 70.121094 39.867188 L 70.5625 40.308594 C 70.171875 40.765625 69.601562 41.078125 68.75 41.078125 C 67.34375 41.078125 66.417969 40.074219 66.417969 38.785156 C 66.417969 37.492188 67.378906 36.476562 68.636719 36.476562 C 70.019531 36.476562 70.855469 37.570312 70.792969 39.03125 L 67.140625 39.03125 C 67.265625 39.878906 67.824219 40.453125 68.761719 40.453125 M 72.65625 39.65625 C 72.65625 40.699219 73.152344 41.089844 73.8125 41.089844 C 74.34375 41.089844 74.671875 40.855469 74.863281 40.648438 L 74.46875 40.179688 C 74.332031 40.308594 74.179688 40.4375 73.886719 40.4375 C 73.570312 40.4375 73.378906 40.257812 73.378906 39.667969 L 73.378906 37.207031 L 74.585938 37.207031 L 74.585938 36.582031 L 73.378906 36.582031 L 73.378906 33.4375 L 72.65625 33.4375 L 72.65625 36.582031 L 71.996094 36.582031 L 71.996094 37.207031 L 72.65625 37.207031 L 72.65625 39.65625 M 30.652344 36.476562 C 29.851562 36.476562 29.308594 36.789062 29.003906 37.375 L 29.003906 33.4375 L 28.28125 33.4375 L 28.28125 41 L 29.003906 41 L 29.003906 40.191406 C 29.292969 40.777344 29.890625 41.078125 30.636719 41.078125 C 31.816406 41.078125 32.730469 40.101562 32.730469 38.769531 C 32.730469 37.46875 31.816406 36.476562 30.652344 36.476562 Z M 30.488281 40.425781 C 29.574219 40.425781 28.964844 39.734375 28.964844 38.769531 C 28.964844 37.820312 29.574219 37.140625 30.488281 37.140625 C 31.386719 37.140625 31.96875 37.820312 31.96875 38.769531 C 31.984375 39.734375 31.398438 40.425781 30.488281 40.425781 Z M 34.988281 37.285156 L 34.988281 36.582031 L 34.265625 36.582031 L 34.265625 41 L 34.988281 41 L 34.988281 38.667969 C 34.988281 37.636719 35.484375 37.179688 36.105469 37.179688 C 36.371094 37.179688 36.5625 37.257812 36.699219 37.347656 L 36.980469 36.699219 C 36.777344 36.554688 36.546875 36.488281 36.230469 36.488281 C 35.722656 36.488281 35.253906 36.660156 34.988281 37.285156 Z M 39.644531 36.476562 C 38.820312 36.476562 38.261719 36.800781 37.894531 37.335938 L 38.335938 37.753906 C 38.601562 37.375 38.996094 37.113281 39.59375 37.113281 C 40.226562 37.113281 40.59375 37.441406 40.59375 38.300781 L 40.59375 38.40625 L 39.25 38.40625 C 38.351562 38.40625 37.613281 38.835938 37.613281 39.734375 C 37.613281 40.648438 38.273438 41.078125 39.199219 41.078125 C 39.859375 41.078125 40.304688 40.894531 40.59375 40.476562 L 40.59375 40.988281 L 41.265625 40.988281 L 41.265625 38.289062 C 41.28125 37.0625 40.59375 36.476562 39.644531 36.476562 Z M 40.59375 39.527344 C 40.59375 40.101562 40.035156 40.476562 39.363281 40.476562 C 38.691406 40.476562 38.324219 40.21875 38.324219 39.710938 C 38.324219 39.175781 38.753906 38.964844 39.300781 38.964844 L 40.59375 38.964844 Z M 46.453125 33.4375 L 46.453125 37.375 C 46.136719 36.789062 45.617188 36.476562 44.804688 36.476562 C 43.636719 36.476562 42.726562 37.453125 42.726562 38.769531 C 42.726562 40.101562 43.636719 41.078125 44.816406 41.078125 C 45.566406 41.078125 46.164062 40.777344 46.453125 40.191406 L 46.453125 41 L 47.164062 41 L 47.164062 33.4375 Z M 44.957031 40.425781 C 44.058594 40.425781 43.472656 39.734375 43.472656 38.769531 C 43.472656 37.820312 44.058594 37.140625 44.957031 37.140625 C 45.871094 37.140625 46.480469 37.820312 46.480469 38.769531 C 46.480469 39.734375 45.871094 40.425781 44.957031 40.425781 Z M 57.996094 37.742188 L 58.25 37.742188 L 58.25 36.566406 L 57.996094 36.566406 Z M 57.996094 37.742188 "/></g><g style="fill:#ffffff;fill-opacity:1;"><g transform="translate(39.662551, 47.249679)"><path style="stroke:none" d="M 3.078125 0 L 0.9375 -3.40625 L 0.9375 -3.125 L 0.953125 -2.65625 L 0.953125 0 L 0.484375 0 L 0.484375 -4 L 1.109375 -4 L 3.265625 -0.578125 C 3.242188 -0.941406 3.234375 -1.207031 3.234375 -1.375 L 3.234375 -4 L 3.71875 -4 L 3.71875 0 Z M 3.078125 0 "/></g><g transform="translate(43.859946, 47.249679)"><path style="stroke:none" d="M 0.390625 -3.71875 L 0.390625 -4.21875 L 0.90625 -4.21875 L 0.90625 -3.71875 Z M 0.390625 0 L 0.390625 -3.078125 L 0.90625 -3.078125 L 0.90625 0 Z M 0.390625 0 "/></g><g transform="translate(45.151234, 47.249679)"><path style="stroke:none" d="M 1.5625 1.203125 C 1.21875 1.203125 0.945312 1.132812 0.75 1 C 0.550781 0.875 0.425781 0.691406 0.375 0.453125 L 0.890625 0.375 C 0.921875 0.519531 0.992188 0.628906 1.109375 0.703125 C 1.222656 0.773438 1.375 0.8125 1.5625 0.8125 C 2.070312 0.8125 2.328125 0.515625 2.328125 -0.078125 L 2.328125 -0.578125 C 2.234375 -0.378906 2.097656 -0.226562 1.921875 -0.125 C 1.753906 -0.03125 1.5625 0.015625 1.34375 0.015625 C 0.96875 0.015625 0.691406 -0.109375 0.515625 -0.359375 C 0.335938 -0.609375 0.25 -1 0.25 -1.53125 C 0.25 -2.070312 0.34375 -2.472656 0.53125 -2.734375 C 0.71875 -2.992188 1.003906 -3.125 1.390625 -3.125 C 1.609375 -3.125 1.796875 -3.070312 1.953125 -2.96875 C 2.117188 -2.875 2.242188 -2.734375 2.328125 -2.546875 L 2.34375 -2.546875 C 2.34375 -2.597656 2.34375 -2.691406 2.34375 -2.828125 C 2.351562 -2.972656 2.363281 -3.054688 2.375 -3.078125 L 2.859375 -3.078125 C 2.847656 -2.972656 2.84375 -2.757812 2.84375 -2.4375 L 2.84375 -0.09375 C 2.84375 0.769531 2.414062 1.203125 1.5625 1.203125 Z M 2.328125 -1.53125 C 2.328125 -1.78125 2.289062 -1.992188 2.21875 -2.171875 C 2.15625 -2.359375 2.0625 -2.5 1.9375 -2.59375 C 1.8125 -2.6875 1.671875 -2.734375 1.515625 -2.734375 C 1.253906 -2.734375 1.0625 -2.640625 0.9375 -2.453125 C 0.820312 -2.265625 0.765625 -1.957031 0.765625 -1.53125 C 0.765625 -1.113281 0.820312 -0.8125 0.9375 -0.625 C 1.050781 -0.445312 1.242188 -0.359375 1.515625 -0.359375 C 1.671875 -0.359375 1.8125 -0.40625 1.9375 -0.5 C 2.0625 -0.59375 2.15625 -0.726562 2.21875 -0.90625 C 2.289062 -1.082031 2.328125 -1.289062 2.328125 -1.53125 Z M 2.328125 -1.53125 "/></g><g transform="translate(48.38371, 47.249679)"><path style="stroke:none" d="M 0.78125 -1.421875 C 0.78125 -1.078125 0.851562 -0.804688 1 -0.609375 C 1.144531 -0.421875 1.359375 -0.328125 1.640625 -0.328125 C 1.859375 -0.328125 2.035156 -0.367188 2.171875 -0.453125 C 2.304688 -0.546875 2.394531 -0.660156 2.4375 -0.796875 L 2.890625 -0.671875 C 2.703125 -0.179688 2.285156 0.0625 1.640625 0.0625 C 1.179688 0.0625 0.832031 -0.0703125 0.59375 -0.34375 C 0.363281 -0.613281 0.25 -1.019531 0.25 -1.5625 C 0.25 -2.0625 0.363281 -2.445312 0.59375 -2.71875 C 0.832031 -2.988281 1.175781 -3.125 1.625 -3.125 C 2.519531 -3.125 2.96875 -2.582031 2.96875 -1.5 L 2.96875 -1.421875 Z M 2.453125 -1.8125 C 2.421875 -2.132812 2.335938 -2.367188 2.203125 -2.515625 C 2.066406 -2.671875 1.867188 -2.75 1.609375 -2.75 C 1.359375 -2.75 1.160156 -2.664062 1.015625 -2.5 C 0.878906 -2.332031 0.800781 -2.101562 0.78125 -1.8125 Z M 2.453125 -1.8125 "/></g><g transform="translate(51.616187, 47.249679)"><path style="stroke:none" d="M 0.40625 0 L 0.40625 -2.359375 C 0.40625 -2.566406 0.398438 -2.804688 0.390625 -3.078125 L 0.875 -3.078125 C 0.882812 -2.722656 0.890625 -2.507812 0.890625 -2.4375 L 0.90625 -2.4375 C 0.988281 -2.707031 1.082031 -2.890625 1.1875 -2.984375 C 1.289062 -3.078125 1.4375 -3.125 1.625 -3.125 C 1.695312 -3.125 1.769531 -3.113281 1.84375 -3.09375 L 1.84375 -2.625 C 1.769531 -2.644531 1.675781 -2.65625 1.5625 -2.65625 C 1.351562 -2.65625 1.191406 -2.5625 1.078125 -2.375 C 0.960938 -2.195312 0.90625 -1.9375 0.90625 -1.59375 L 0.90625 0 Z M 0.40625 0 "/></g><g transform="translate(53.5517, 47.249679)"><path style="stroke:none" d="M 0.390625 -3.71875 L 0.390625 -4.21875 L 0.90625 -4.21875 L 0.90625 -3.71875 Z M 0.390625 0 L 0.390625 -3.078125 L 0.90625 -3.078125 L 0.90625 0 Z M 0.390625 0 "/></g><g transform="translate(54.842988, 47.249679)"><path style="stroke:none" d="M 1.171875 0.0625 C 0.867188 0.0625 0.640625 -0.0195312 0.484375 -0.1875 C 0.328125 -0.351562 0.25 -0.578125 0.25 -0.859375 C 0.25 -1.171875 0.351562 -1.410156 0.5625 -1.578125 C 0.769531 -1.753906 1.109375 -1.847656 1.578125 -1.859375 L 2.265625 -1.875 L 2.265625 -2.046875 C 2.265625 -2.296875 2.207031 -2.472656 2.09375 -2.578125 C 1.988281 -2.679688 1.828125 -2.734375 1.609375 -2.734375 C 1.378906 -2.734375 1.210938 -2.691406 1.109375 -2.609375 C 1.003906 -2.535156 0.941406 -2.414062 0.921875 -2.25 L 0.390625 -2.296875 C 0.472656 -2.847656 0.878906 -3.125 1.609375 -3.125 C 1.992188 -3.125 2.285156 -3.035156 2.484375 -2.859375 C 2.679688 -2.679688 2.78125 -2.425781 2.78125 -2.09375 L 2.78125 -0.765625 C 2.78125 -0.617188 2.796875 -0.503906 2.828125 -0.421875 C 2.867188 -0.347656 2.945312 -0.3125 3.0625 -0.3125 C 3.113281 -0.3125 3.171875 -0.316406 3.234375 -0.328125 L 3.234375 -0.015625 C 3.109375 0.015625 2.976562 0.03125 2.84375 0.03125 C 2.644531 0.03125 2.503906 -0.015625 2.421875 -0.109375 C 2.335938 -0.210938 2.289062 -0.375 2.28125 -0.59375 L 2.265625 -0.59375 C 2.128906 -0.351562 1.972656 -0.179688 1.796875 -0.078125 C 1.628906 0.015625 1.421875 0.0625 1.171875 0.0625 Z M 1.296875 -0.328125 C 1.484375 -0.328125 1.648438 -0.367188 1.796875 -0.453125 C 1.941406 -0.535156 2.054688 -0.648438 2.140625 -0.796875 C 2.222656 -0.953125 2.265625 -1.109375 2.265625 -1.265625 L 2.265625 -1.515625 L 1.703125 -1.5 C 1.460938 -1.5 1.28125 -1.472656 1.15625 -1.421875 C 1.03125 -1.378906 0.929688 -1.3125 0.859375 -1.21875 C 0.796875 -1.125 0.765625 -1 0.765625 -0.84375 C 0.765625 -0.675781 0.8125 -0.546875 0.90625 -0.453125 C 1 -0.367188 1.128906 -0.328125 1.296875 -0.328125 Z M 1.296875 -0.328125 "/></g></g></g></svg>