<svg xmlns="http://www.w3.org/2000/svg" xmlns:xlink="http://www.w3.org/1999/xlink" width="180" zoomAndPan="magnify" viewBox="0 0 135 44.999999" height="60" preserveAspectRatio="xMidYMid meet" version="1.2"><defs><clipPath id="405b1140f3"><path d="M 0 15 L 47 15 L 47 32.144531 L 0 32.144531 Z M 0 15 "/></clipPath><clipPath id="a1802c2108"><path d="M 33 12.644531 L 135 12.644531 L 135 30 L 33 30 Z M 33 12.644531 "/></clipPath></defs><g id="5ea76f3013"><g clip-rule="nonzero" clip-path="url(#405b1140f3)"><path style=" stroke:none;fill-rule:nonzero;fill:#ffffff;fill-opacity:1;" d="M 32.921875 15.785156 L 46.351562 29.570312 L 44.933594 30.925781 L 42.808594 28.753906 L 40.707031 30.765625 C 39.726562 31.691406 38.449219 32.210938 37.078125 32.191406 C 35.730469 32.167969 34.449219 31.625 33.515625 30.652344 C 32.578125 29.679688 32.074219 28.417969 32.097656 27.082031 C 32.121094 25.75 32.667969 24.484375 33.652344 23.558594 L 35.042969 22.226562 L 36.414062 23.625 L 35.023438 24.957031 C 34.425781 25.523438 34.085938 26.316406 34.0625 27.128906 C 34.039062 27.941406 34.359375 28.730469 34.929688 29.320312 C 35.5 29.90625 36.277344 30.246094 37.121094 30.269531 C 37.96875 30.292969 38.746094 29.976562 39.339844 29.410156 L 41.441406 27.398438 L 32.921875 18.65625 Z M 8.253906 16.125 L 8.253906 29.230469 L 6.949219 29.230469 L 6.949219 27.828125 C 6.402344 28.84375 5.351562 29.363281 4.003906 29.363281 C 1.878906 29.363281 0.234375 27.671875 0.234375 25.367188 C 0.234375 23.082031 1.878906 21.390625 3.980469 21.390625 C 5.464844 21.390625 6.402344 22.113281 6.949219 23.128906 L 6.949219 16.125 Z M 7.019531 25.367188 C 7.019531 23.714844 5.921875 22.542969 4.277344 22.542969 C 2.65625 22.542969 1.605469 23.714844 1.605469 25.367188 C 1.605469 27.039062 2.65625 28.234375 4.277344 28.234375 C 5.902344 28.234375 7.019531 27.039062 7.019531 25.367188 Z M 16.703125 25.773438 C 16.703125 27.261719 15.746094 28.191406 14.28125 28.191406 C 13.003906 28.191406 12.363281 27.445312 12.363281 26.109375 L 12.363281 21.570312 L 11.0625 21.570312 L 11.0625 26.269531 C 11.0625 28.234375 12.25 29.386719 13.964844 29.386719 C 15.195312 29.386719 16.179688 28.9375 16.703125 27.917969 L 16.703125 29.207031 L 18.003906 29.207031 L 18.003906 21.570312 L 16.703125 21.570312 Z M 25.15625 21.390625 C 23.921875 21.390625 22.917969 21.839844 22.414062 22.878906 L 22.414062 21.570312 L 21.113281 21.570312 L 21.113281 29.230469 L 22.414062 29.230469 L 22.414062 25.003906 C 22.414062 23.488281 23.394531 22.585938 24.835938 22.585938 C 26.136719 22.585938 26.753906 23.355469 26.753906 24.710938 L 26.753906 29.230469 L 28.054688 29.230469 L 28.054688 24.550781 C 28.054688 22.5625 26.867188 21.390625 25.15625 21.390625 Z M 25.15625 21.390625 "/></g><g clip-rule="nonzero" clip-path="url(#a1802c2108)"><path style=" stroke:none;fill-rule:nonzero;fill:#ffffff;fill-opacity:1;" d="M 45.183594 19.402344 C 46.121094 20.371094 46.625 21.636719 46.601562 22.96875 C 46.578125 24.304688 46.03125 25.570312 45.046875 26.496094 L 44.867188 26.652344 L 43.496094 25.273438 L 43.679688 25.117188 C 44.273438 24.550781 44.613281 23.761719 44.636719 22.949219 C 44.660156 22.132812 44.339844 21.34375 43.769531 20.757812 C 43.449219 20.417969 43.085938 20.167969 42.648438 20.011719 L 42.648438 18 C 43.609375 18.203125 44.476562 18.675781 45.183594 19.402344 M 34.199219 13.84375 L 33.21875 14.769531 L 34.585938 16.167969 L 35.570312 15.242188 C 36.507812 14.363281 37.992188 14.382812 38.882812 15.289062 C 39.773438 16.214844 39.75 17.683594 38.8125 18.5625 L 37.855469 19.46875 L 39.222656 20.867188 L 40.183594 19.964844 C 41.894531 18.339844 41.941406 15.625 40.296875 13.933594 C 38.652344 12.261719 35.914062 12.214844 34.199219 13.84375 M 87.460938 27.601562 C 87.964844 28.574219 89.0625 29.386719 90.773438 29.386719 C 92.714844 29.386719 93.605469 28.417969 93.605469 27.105469 C 93.605469 25.613281 92.351562 25.117188 91.046875 24.753906 C 89.675781 24.371094 89.222656 24.167969 89.222656 23.445312 C 89.222656 22.859375 89.722656 22.472656 90.570312 22.472656 C 91.320312 22.472656 91.871094 22.8125 92.257812 23.355469 L 93.148438 22.675781 C 92.601562 21.910156 91.757812 21.433594 90.570312 21.433594 C 89.152344 21.433594 88.03125 22.203125 88.03125 23.535156 C 88.03125 24.980469 89.152344 25.457031 90.363281 25.816406 C 91.710938 26.203125 92.394531 26.382812 92.394531 27.21875 C 92.394531 27.917969 91.800781 28.371094 90.75 28.371094 C 89.632812 28.371094 88.945312 27.804688 88.511719 27.082031 L 87.460938 27.601562 M 96.871094 26.902344 C 96.871094 28.710938 97.761719 29.386719 98.949219 29.386719 C 99.910156 29.386719 100.503906 28.980469 100.847656 28.621094 L 100.136719 27.804688 C 99.886719 28.03125 99.613281 28.257812 99.085938 28.257812 C 98.515625 28.257812 98.175781 27.941406 98.175781 26.925781 L 98.175781 22.652344 L 100.34375 22.652344 L 100.34375 21.570312 L 98.175781 21.570312 L 98.175781 16.125 L 96.871094 16.125 L 96.871094 21.570312 L 95.683594 21.570312 L 95.683594 22.652344 L 96.871094 22.652344 L 96.871094 26.902344 M 103.5625 29.230469 L 104.867188 29.230469 L 104.867188 25.183594 C 104.867188 23.398438 105.757812 22.609375 106.875 22.609375 C 107.355469 22.609375 107.699219 22.746094 107.949219 22.902344 L 108.453125 21.773438 C 108.085938 21.523438 107.675781 21.410156 107.105469 21.410156 C 106.191406 21.410156 105.324219 21.707031 104.84375 22.878906 L 104.890625 21.570312 L 103.585938 21.570312 L 103.585938 29.230469 Z M 116.082031 24.847656 C 115.964844 23.535156 115.121094 22.496094 113.5 22.496094 C 112.015625 22.496094 111.03125 23.445312 110.828125 24.847656 Z M 113.683594 28.28125 C 114.847656 28.28125 115.625 27.828125 116.125 27.261719 L 116.925781 28.03125 C 116.21875 28.824219 115.191406 29.363281 113.660156 29.363281 C 111.125 29.363281 109.457031 27.625 109.457031 25.386719 C 109.457031 23.152344 111.191406 21.390625 113.453125 21.390625 C 115.945312 21.390625 117.449219 23.285156 117.335938 25.816406 L 110.757812 25.816406 C 110.964844 27.285156 111.992188 28.28125 113.683594 28.28125 M 126.199219 24.847656 C 126.085938 23.535156 125.238281 22.496094 123.617188 22.496094 C 122.132812 22.496094 121.152344 23.445312 120.945312 24.847656 Z M 123.800781 28.28125 C 124.964844 28.28125 125.742188 27.828125 126.246094 27.261719 L 127.042969 28.03125 C 126.335938 28.824219 125.308594 29.363281 123.777344 29.363281 C 121.242188 29.363281 119.574219 27.625 119.574219 25.386719 C 119.574219 23.152344 121.3125 21.390625 123.570312 21.390625 C 126.0625 21.390625 127.570312 23.285156 127.453125 25.816406 L 120.878906 25.816406 C 121.105469 27.285156 122.109375 28.28125 123.800781 28.28125 M 130.8125 26.902344 C 130.8125 28.710938 131.703125 29.386719 132.890625 29.386719 C 133.851562 29.386719 134.445312 28.980469 134.785156 28.621094 L 134.078125 27.804688 C 133.828125 28.03125 133.554688 28.257812 133.027344 28.257812 C 132.457031 28.257812 132.113281 27.941406 132.113281 26.925781 L 132.113281 22.652344 L 134.285156 22.652344 L 134.285156 21.570312 L 132.113281 21.570312 L 132.113281 16.125 L 130.8125 16.125 L 130.8125 21.570312 L 129.625 21.570312 L 129.625 22.652344 L 130.8125 22.652344 L 130.8125 26.902344 M 55.167969 21.390625 C 53.726562 21.390625 52.746094 21.929688 52.195312 22.949219 L 52.195312 16.125 L 50.894531 16.125 L 50.894531 29.230469 L 52.195312 29.230469 L 52.195312 27.828125 C 52.722656 28.84375 53.796875 29.363281 55.144531 29.363281 C 57.269531 29.363281 58.914062 27.671875 58.914062 25.367188 C 58.914062 23.105469 57.269531 21.390625 55.167969 21.390625 Z M 54.871094 28.234375 C 53.226562 28.234375 52.128906 27.039062 52.128906 25.367188 C 52.128906 23.714844 53.226562 22.542969 54.871094 22.542969 C 56.492188 22.542969 57.542969 23.714844 57.542969 25.367188 C 57.566406 27.039062 56.515625 28.234375 54.871094 28.234375 Z M 62.976562 22.789062 L 62.976562 21.570312 L 61.675781 21.570312 L 61.675781 29.230469 L 62.976562 29.230469 L 62.976562 25.183594 C 62.976562 23.398438 63.867188 22.609375 64.988281 22.609375 C 65.46875 22.609375 65.808594 22.746094 66.0625 22.902344 L 66.5625 21.773438 C 66.199219 21.523438 65.785156 21.410156 65.214844 21.410156 C 64.300781 21.410156 63.457031 21.707031 62.976562 22.789062 Z M 71.359375 21.390625 C 69.875 21.390625 68.871094 21.953125 68.207031 22.878906 L 69.007812 23.601562 C 69.488281 22.949219 70.195312 22.496094 71.269531 22.496094 C 72.410156 22.496094 73.074219 23.0625 73.074219 24.550781 L 73.074219 24.734375 L 70.652344 24.734375 C 69.03125 24.734375 67.707031 25.480469 67.707031 27.039062 C 67.707031 28.621094 68.894531 29.363281 70.5625 29.363281 C 71.75 29.363281 72.546875 29.046875 73.074219 28.324219 L 73.074219 29.207031 L 74.285156 29.207031 L 74.285156 24.53125 C 74.304688 22.40625 73.074219 21.390625 71.359375 21.390625 Z M 73.074219 26.675781 C 73.074219 27.671875 72.066406 28.324219 70.859375 28.324219 C 69.648438 28.324219 68.984375 27.875 68.984375 26.992188 C 68.984375 26.066406 69.761719 25.703125 70.742188 25.703125 L 73.074219 25.703125 Z M 83.625 16.125 L 83.625 22.949219 C 83.054688 21.929688 82.117188 21.390625 80.65625 21.390625 C 78.554688 21.390625 76.910156 23.082031 76.910156 25.367188 C 76.910156 27.671875 78.554688 29.363281 80.679688 29.363281 C 82.027344 29.363281 83.101562 28.84375 83.625 27.828125 L 83.625 29.230469 L 84.902344 29.230469 L 84.902344 16.125 Z M 80.929688 28.234375 C 79.308594 28.234375 78.257812 27.039062 78.257812 25.367188 C 78.257812 23.714844 79.308594 22.542969 80.929688 22.542969 C 82.574219 22.542969 83.671875 23.714844 83.671875 25.367188 C 83.671875 27.039062 82.574219 28.234375 80.929688 28.234375 Z M 104.410156 23.582031 L 104.867188 23.582031 L 104.867188 21.546875 L 104.410156 21.546875 Z M 104.410156 23.582031 "/></g><g style="fill:#ffffff;fill-opacity:1;"><g transform="translate(67.499997, 40.895533)"><path style="stroke:none" d="M 6.421875 0 L 1.953125 -7.125 L 1.984375 -6.546875 L 2 -5.5625 L 2 0 L 1 0 L 1 -8.359375 L 2.3125 -8.359375 L 6.84375 -1.1875 C 6.789062 -1.96875 6.765625 -2.53125 6.765625 -2.875 L 6.765625 -8.359375 L 7.78125 -8.359375 L 7.78125 0 Z M 6.421875 0 "/></g><g transform="translate(76.282548, 40.895533)"><path style="stroke:none" d="M 0.8125 -7.78125 L 0.8125 -8.8125 L 1.875 -8.8125 L 1.875 -7.78125 Z M 0.8125 0 L 0.8125 -6.421875 L 1.875 -6.421875 L 1.875 0 Z M 0.8125 0 "/></g><g transform="translate(78.984415, 40.895533)"><path style="stroke:none" d="M 3.25 2.515625 C 2.550781 2.515625 1.992188 2.378906 1.578125 2.109375 C 1.160156 1.835938 0.894531 1.445312 0.78125 0.9375 L 1.859375 0.78125 C 1.921875 1.082031 2.070312 1.3125 2.3125 1.46875 C 2.5625 1.625 2.882812 1.703125 3.28125 1.703125 C 4.34375 1.703125 4.875 1.082031 4.875 -0.15625 L 4.875 -1.1875 C 4.664062 -0.78125 4.382812 -0.472656 4.03125 -0.265625 C 3.6875 -0.0546875 3.273438 0.046875 2.796875 0.046875 C 2.015625 0.046875 1.4375 -0.210938 1.0625 -0.734375 C 0.695312 -1.253906 0.515625 -2.078125 0.515625 -3.203125 C 0.515625 -4.335938 0.710938 -5.171875 1.109375 -5.703125 C 1.503906 -6.242188 2.109375 -6.515625 2.921875 -6.515625 C 3.378906 -6.515625 3.773438 -6.410156 4.109375 -6.203125 C 4.441406 -6.003906 4.695312 -5.710938 4.875 -5.328125 L 4.890625 -5.328125 C 4.890625 -5.441406 4.894531 -5.644531 4.90625 -5.9375 C 4.925781 -6.226562 4.945312 -6.390625 4.96875 -6.421875 L 5.984375 -6.421875 C 5.953125 -6.210938 5.9375 -5.769531 5.9375 -5.09375 L 5.9375 -0.1875 C 5.9375 1.613281 5.039062 2.515625 3.25 2.515625 Z M 4.875 -3.21875 C 4.875 -3.738281 4.800781 -4.1875 4.65625 -4.5625 C 4.519531 -4.9375 4.320312 -5.222656 4.0625 -5.421875 C 3.800781 -5.628906 3.507812 -5.734375 3.1875 -5.734375 C 2.632812 -5.734375 2.234375 -5.535156 1.984375 -5.140625 C 1.734375 -4.742188 1.609375 -4.101562 1.609375 -3.21875 C 1.609375 -2.332031 1.722656 -1.695312 1.953125 -1.3125 C 2.191406 -0.925781 2.59375 -0.734375 3.15625 -0.734375 C 3.5 -0.734375 3.800781 -0.832031 4.0625 -1.03125 C 4.320312 -1.226562 4.519531 -1.515625 4.65625 -1.890625 C 4.800781 -2.265625 4.875 -2.707031 4.875 -3.21875 Z M 4.875 -3.21875 "/></g><g transform="translate(85.747989, 40.895533)"><path style="stroke:none" d="M 1.640625 -2.984375 C 1.640625 -2.242188 1.789062 -1.675781 2.09375 -1.28125 C 2.394531 -0.882812 2.84375 -0.6875 3.4375 -0.6875 C 3.894531 -0.6875 4.265625 -0.773438 4.546875 -0.953125 C 4.828125 -1.140625 5.015625 -1.378906 5.109375 -1.671875 L 6.046875 -1.40625 C 5.660156 -0.382812 4.789062 0.125 3.4375 0.125 C 2.476562 0.125 1.75 -0.15625 1.25 -0.71875 C 0.757812 -1.289062 0.515625 -2.132812 0.515625 -3.25 C 0.515625 -4.3125 0.757812 -5.125 1.25 -5.6875 C 1.75 -6.257812 2.460938 -6.546875 3.390625 -6.546875 C 5.273438 -6.546875 6.21875 -5.40625 6.21875 -3.125 L 6.21875 -2.984375 Z M 5.109375 -3.8125 C 5.054688 -4.476562 4.882812 -4.96875 4.59375 -5.28125 C 4.3125 -5.59375 3.90625 -5.75 3.375 -5.75 C 2.851562 -5.75 2.441406 -5.578125 2.140625 -5.234375 C 1.835938 -4.890625 1.675781 -4.414062 1.65625 -3.8125 Z M 5.109375 -3.8125 "/></g><g transform="translate(92.511563, 40.895533)"><path style="stroke:none" d="M 0.84375 0 L 0.84375 -4.921875 C 0.84375 -5.378906 0.832031 -5.878906 0.8125 -6.421875 L 1.8125 -6.421875 C 1.84375 -5.691406 1.859375 -5.253906 1.859375 -5.109375 L 1.890625 -5.109375 C 2.054688 -5.660156 2.25 -6.035156 2.46875 -6.234375 C 2.695312 -6.441406 3.007812 -6.546875 3.40625 -6.546875 C 3.550781 -6.546875 3.695312 -6.523438 3.84375 -6.484375 L 3.84375 -5.5 C 3.695312 -5.539062 3.507812 -5.5625 3.28125 -5.5625 C 2.832031 -5.5625 2.488281 -5.367188 2.25 -4.984375 C 2.019531 -4.609375 1.90625 -4.0625 1.90625 -3.34375 L 1.90625 0 Z M 0.84375 0 "/></g><g transform="translate(96.561394, 40.895533)"><path style="stroke:none" d="M 0.8125 -7.78125 L 0.8125 -8.8125 L 1.875 -8.8125 L 1.875 -7.78125 Z M 0.8125 0 L 0.8125 -6.421875 L 1.875 -6.421875 L 1.875 0 Z M 0.8125 0 "/></g><g transform="translate(99.26326, 40.895533)"><path style="stroke:none" d="M 2.453125 0.125 C 1.804688 0.125 1.320312 -0.046875 1 -0.390625 C 0.675781 -0.734375 0.515625 -1.203125 0.515625 -1.796875 C 0.515625 -2.460938 0.734375 -2.972656 1.171875 -3.328125 C 1.609375 -3.679688 2.3125 -3.867188 3.28125 -3.890625 L 4.734375 -3.921875 L 4.734375 -4.265625 C 4.734375 -4.785156 4.617188 -5.160156 4.390625 -5.390625 C 4.171875 -5.617188 3.828125 -5.734375 3.359375 -5.734375 C 2.878906 -5.734375 2.53125 -5.648438 2.3125 -5.484375 C 2.09375 -5.316406 1.960938 -5.054688 1.921875 -4.703125 L 0.796875 -4.8125 C 0.984375 -5.96875 1.84375 -6.546875 3.375 -6.546875 C 4.1875 -6.546875 4.796875 -6.359375 5.203125 -5.984375 C 5.609375 -5.617188 5.8125 -5.082031 5.8125 -4.375 L 5.8125 -1.609375 C 5.8125 -1.296875 5.851562 -1.054688 5.9375 -0.890625 C 6.019531 -0.734375 6.175781 -0.65625 6.40625 -0.65625 C 6.507812 -0.65625 6.628906 -0.671875 6.765625 -0.703125 L 6.765625 -0.03125 C 6.492188 0.03125 6.21875 0.0625 5.9375 0.0625 C 5.539062 0.0625 5.25 -0.0390625 5.0625 -0.25 C 4.882812 -0.457031 4.785156 -0.785156 4.765625 -1.234375 L 4.734375 -1.234375 C 4.460938 -0.742188 4.144531 -0.394531 3.78125 -0.1875 C 3.414062 0.0195312 2.972656 0.125 2.453125 0.125 Z M 2.703125 -0.6875 C 3.085938 -0.6875 3.429688 -0.773438 3.734375 -0.953125 C 4.046875 -1.128906 4.289062 -1.375 4.46875 -1.6875 C 4.644531 -2 4.734375 -2.316406 4.734375 -2.640625 L 4.734375 -3.171875 L 3.5625 -3.140625 C 3.0625 -3.140625 2.679688 -3.085938 2.421875 -2.984375 C 2.160156 -2.890625 1.957031 -2.742188 1.8125 -2.546875 C 1.675781 -2.347656 1.609375 -2.09375 1.609375 -1.78125 C 1.609375 -1.425781 1.703125 -1.15625 1.890625 -0.96875 C 2.078125 -0.78125 2.347656 -0.6875 2.703125 -0.6875 Z M 2.703125 -0.6875 "/></g></g></g></svg>