<svg xmlns="http://www.w3.org/2000/svg" xmlns:xlink="http://www.w3.org/1999/xlink" width="167" zoomAndPan="magnify" viewBox="0 0 125.25 36.000001" height="48" preserveAspectRatio="xMidYMid meet" version="1.2"><defs><clipPath id="268b8a3d96"><path d="M 1.328125 11 L 44 11 L 44 26.128906 L 1.328125 26.128906 Z M 1.328125 11 "/></clipPath><clipPath id="51c9bda9d7"><path d="M 31 8.617188 L 123 8.617188 L 123 24 L 31 24 Z M 31 8.617188 "/></clipPath></defs><g id="c6ab79ce51"><g clip-rule="nonzero" clip-path="url(#268b8a3d96)"><path style=" stroke:none;fill-rule:nonzero;fill:#ffffff;fill-opacity:1;" d="M 31.054688 11.4375 L 43.175781 23.816406 L 41.898438 25.035156 L 39.980469 23.085938 L 38.082031 24.890625 C 37.199219 25.722656 36.042969 26.191406 34.804688 26.171875 C 33.589844 26.152344 32.4375 25.664062 31.589844 24.789062 C 30.746094 23.917969 30.292969 22.78125 30.3125 21.585938 C 30.332031 20.386719 30.828125 19.25 31.714844 18.417969 L 32.972656 17.222656 L 34.207031 18.480469 L 32.953125 19.675781 C 32.414062 20.183594 32.105469 20.894531 32.085938 21.625 C 32.066406 22.355469 32.355469 23.066406 32.867188 23.59375 C 33.382812 24.121094 34.085938 24.425781 34.847656 24.445312 C 35.609375 24.464844 36.3125 24.183594 36.847656 23.675781 L 38.742188 21.867188 L 31.054688 14.015625 Z M 8.796875 11.742188 L 8.796875 23.511719 L 7.621094 23.511719 L 7.621094 22.253906 C 7.125 23.167969 6.179688 23.632812 4.960938 23.632812 C 3.046875 23.632812 1.5625 22.113281 1.5625 20.042969 C 1.5625 17.992188 3.046875 16.46875 4.941406 16.46875 C 6.28125 16.46875 7.125 17.121094 7.621094 18.03125 L 7.621094 11.742188 Z M 7.683594 20.042969 C 7.683594 18.5625 6.691406 17.503906 5.210938 17.503906 C 3.746094 17.503906 2.796875 18.5625 2.796875 20.042969 C 2.796875 21.542969 3.746094 22.621094 5.210938 22.621094 C 6.671875 22.621094 7.683594 21.542969 7.683594 20.042969 Z M 16.421875 20.40625 C 16.421875 21.746094 15.554688 22.578125 14.238281 22.578125 C 13.082031 22.578125 12.503906 21.910156 12.503906 20.710938 L 12.503906 16.632812 L 11.332031 16.632812 L 11.332031 20.855469 C 11.332031 22.621094 12.402344 23.65625 13.949219 23.65625 C 15.0625 23.65625 15.949219 23.25 16.421875 22.335938 L 16.421875 23.492188 L 17.597656 23.492188 L 17.597656 16.632812 L 16.421875 16.632812 Z M 24.046875 16.46875 C 22.933594 16.46875 22.027344 16.875 21.574219 17.808594 L 21.574219 16.632812 L 20.398438 16.632812 L 20.398438 23.511719 L 21.574219 23.511719 L 21.574219 19.71875 C 21.574219 18.359375 22.460938 17.546875 23.757812 17.546875 C 24.933594 17.546875 25.492188 18.234375 25.492188 19.453125 L 25.492188 23.511719 L 26.664062 23.511719 L 26.664062 19.3125 C 26.664062 17.527344 25.59375 16.46875 24.046875 16.46875 Z M 24.046875 16.46875 "/></g><g clip-rule="nonzero" clip-path="url(#51c9bda9d7)"><path style=" stroke:none;fill-rule:nonzero;fill:#ffffff;fill-opacity:1;" d="M 42.125 14.683594 C 42.96875 15.558594 43.421875 16.695312 43.402344 17.890625 C 43.378906 19.089844 42.886719 20.226562 42 21.058594 L 41.835938 21.199219 L 40.597656 19.960938 L 40.761719 19.820312 C 41.300781 19.3125 41.609375 18.601562 41.628906 17.871094 C 41.648438 17.140625 41.359375 16.429688 40.84375 15.902344 C 40.558594 15.597656 40.226562 15.375 39.835938 15.234375 L 39.835938 13.425781 C 40.703125 13.609375 41.484375 14.035156 42.125 14.683594 M 32.210938 9.691406 L 31.324219 10.523438 L 32.558594 11.78125 L 33.445312 10.949219 C 34.292969 10.160156 35.632812 10.179688 36.433594 10.992188 C 37.238281 11.824219 37.21875 13.140625 36.371094 13.933594 L 35.507812 14.746094 L 36.742188 16.003906 L 37.609375 15.191406 C 39.15625 13.730469 39.195312 11.296875 37.710938 9.773438 C 36.230469 8.273438 33.753906 8.230469 32.210938 9.691406 M 80.273438 22.050781 C 80.726562 22.925781 81.714844 23.65625 83.261719 23.65625 C 85.015625 23.65625 85.816406 22.78125 85.816406 21.605469 C 85.816406 20.265625 84.683594 19.820312 83.511719 19.496094 C 82.273438 19.148438 81.859375 18.964844 81.859375 18.316406 C 81.859375 17.789062 82.316406 17.445312 83.078125 17.445312 C 83.757812 17.445312 84.25 17.75 84.601562 18.234375 L 85.40625 17.628906 C 84.910156 16.9375 84.148438 16.511719 83.078125 16.511719 C 81.800781 16.511719 80.789062 17.199219 80.789062 18.398438 C 80.789062 19.695312 81.800781 20.125 82.890625 20.449219 C 84.109375 20.792969 84.726562 20.957031 84.726562 21.707031 C 84.726562 22.335938 84.191406 22.742188 83.242188 22.742188 C 82.230469 22.742188 81.613281 22.234375 81.222656 21.585938 L 80.273438 22.050781 M 88.765625 21.421875 C 88.765625 23.046875 89.570312 23.65625 90.640625 23.65625 C 91.507812 23.65625 92.042969 23.289062 92.351562 22.964844 L 91.714844 22.234375 C 91.484375 22.4375 91.238281 22.640625 90.765625 22.640625 C 90.25 22.640625 89.941406 22.355469 89.941406 21.441406 L 89.941406 17.605469 L 91.898438 17.605469 L 91.898438 16.632812 L 89.941406 16.632812 L 89.941406 11.742188 L 88.765625 11.742188 L 88.765625 16.632812 L 87.695312 16.632812 L 87.695312 17.605469 L 88.765625 17.605469 L 88.765625 21.421875 M 94.804688 23.511719 L 95.980469 23.511719 L 95.980469 19.878906 C 95.980469 18.277344 96.785156 17.566406 97.792969 17.566406 C 98.226562 17.566406 98.535156 17.6875 98.761719 17.832031 L 99.214844 16.816406 C 98.886719 16.59375 98.515625 16.492188 98 16.492188 C 97.175781 16.492188 96.390625 16.753906 95.957031 17.808594 L 96 16.632812 L 94.824219 16.632812 L 94.824219 23.511719 Z M 106.097656 19.574219 C 105.996094 18.398438 105.234375 17.464844 103.769531 17.464844 C 102.429688 17.464844 101.542969 18.316406 101.359375 19.574219 Z M 103.933594 22.660156 C 104.988281 22.660156 105.6875 22.253906 106.140625 21.746094 L 106.863281 22.4375 C 106.222656 23.148438 105.296875 23.632812 103.914062 23.632812 C 101.625 23.632812 100.121094 22.070312 100.121094 20.0625 C 100.121094 18.054688 101.6875 16.46875 103.730469 16.46875 C 105.976562 16.46875 107.335938 18.175781 107.234375 20.449219 L 101.296875 20.449219 C 101.484375 21.765625 102.410156 22.660156 103.933594 22.660156 M 115.230469 19.574219 C 115.128906 18.398438 114.363281 17.464844 112.902344 17.464844 C 111.5625 17.464844 110.675781 18.316406 110.488281 19.574219 Z M 113.066406 22.660156 C 114.117188 22.660156 114.816406 22.253906 115.269531 21.746094 L 115.992188 22.4375 C 115.355469 23.148438 114.425781 23.632812 113.046875 23.632812 C 110.757812 23.632812 109.253906 22.070312 109.253906 20.0625 C 109.253906 18.054688 110.820312 16.46875 112.859375 16.46875 C 115.105469 16.46875 116.464844 18.175781 116.363281 20.449219 L 110.425781 20.449219 C 110.632812 21.765625 111.539062 22.660156 113.066406 22.660156 M 119.394531 21.421875 C 119.394531 23.046875 120.195312 23.65625 121.269531 23.65625 C 122.132812 23.65625 122.671875 23.289062 122.980469 22.964844 L 122.339844 22.234375 C 122.113281 22.4375 121.867188 22.640625 121.394531 22.640625 C 120.878906 22.640625 120.566406 22.355469 120.566406 21.441406 L 120.566406 17.605469 L 122.527344 17.605469 L 122.527344 16.632812 L 120.566406 16.632812 L 120.566406 11.742188 L 119.394531 11.742188 L 119.394531 16.632812 L 118.320312 16.632812 L 118.320312 17.605469 L 119.394531 17.605469 L 119.394531 21.421875 M 51.128906 16.46875 C 49.832031 16.46875 48.945312 16.957031 48.449219 17.871094 L 48.449219 11.742188 L 47.277344 11.742188 L 47.277344 23.511719 L 48.449219 23.511719 L 48.449219 22.253906 C 48.925781 23.167969 49.894531 23.632812 51.109375 23.632812 C 53.027344 23.632812 54.511719 22.113281 54.511719 20.042969 C 54.511719 18.011719 53.027344 16.46875 51.128906 16.46875 Z M 50.863281 22.621094 C 49.378906 22.621094 48.390625 21.542969 48.390625 20.042969 C 48.390625 18.5625 49.378906 17.503906 50.863281 17.503906 C 52.324219 17.503906 53.273438 18.5625 53.273438 20.042969 C 53.292969 21.542969 52.347656 22.621094 50.863281 22.621094 Z M 58.179688 17.730469 L 58.179688 16.632812 L 57.003906 16.632812 L 57.003906 23.511719 L 58.179688 23.511719 L 58.179688 19.878906 C 58.179688 18.277344 58.984375 17.566406 59.992188 17.566406 C 60.425781 17.566406 60.734375 17.6875 60.960938 17.832031 L 61.414062 16.816406 C 61.085938 16.59375 60.714844 16.492188 60.199219 16.492188 C 59.375 16.492188 58.613281 16.753906 58.179688 17.730469 Z M 65.742188 16.46875 C 64.402344 16.46875 63.496094 16.976562 62.898438 17.808594 L 63.621094 18.460938 C 64.054688 17.871094 64.691406 17.464844 65.660156 17.464844 C 66.691406 17.464844 67.289062 17.972656 67.289062 19.3125 L 67.289062 19.472656 L 65.105469 19.472656 C 63.640625 19.472656 62.445312 20.144531 62.445312 21.542969 C 62.445312 22.964844 63.515625 23.632812 65.023438 23.632812 C 66.09375 23.632812 66.816406 23.351562 67.289062 22.699219 L 67.289062 23.492188 L 68.382812 23.492188 L 68.382812 19.292969 C 68.402344 17.382812 67.289062 16.46875 65.742188 16.46875 Z M 67.289062 21.21875 C 67.289062 22.113281 66.382812 22.699219 65.289062 22.699219 C 64.199219 22.699219 63.601562 22.292969 63.601562 21.503906 C 63.601562 20.671875 64.300781 20.347656 65.1875 20.347656 L 67.289062 20.347656 Z M 76.8125 11.742188 L 76.8125 17.871094 C 76.296875 16.957031 75.449219 16.46875 74.132812 16.46875 C 72.234375 16.46875 70.75 17.992188 70.75 20.042969 C 70.75 22.113281 72.234375 23.632812 74.152344 23.632812 C 75.367188 23.632812 76.335938 23.167969 76.8125 22.253906 L 76.8125 23.511719 L 77.964844 23.511719 L 77.964844 11.742188 Z M 74.378906 22.621094 C 72.914062 22.621094 71.96875 21.542969 71.96875 20.042969 C 71.96875 18.5625 72.914062 17.503906 74.378906 17.503906 C 75.863281 17.503906 76.851562 18.5625 76.851562 20.042969 C 76.851562 21.542969 75.863281 22.621094 74.378906 22.621094 Z M 95.566406 18.4375 L 95.980469 18.4375 L 95.980469 16.613281 L 95.566406 16.613281 Z M 95.566406 18.4375 "/></g><g style="fill:#ffffff;fill-opacity:1;"><g transform="translate(62.260133, 32.570922)"><path style="stroke:none" d="M 6.140625 0 L 1.859375 -6.796875 L 1.890625 -6.25 L 1.921875 -5.3125 L 1.921875 0 L 0.953125 0 L 0.953125 -7.984375 L 2.203125 -7.984375 L 6.53125 -1.140625 C 6.488281 -1.878906 6.46875 -2.414062 6.46875 -2.75 L 6.46875 -7.984375 L 7.4375 -7.984375 L 7.4375 0 Z M 6.140625 0 "/></g><g transform="translate(70.638492, 32.570922)"><path style="stroke:none" d="M 0.78125 -7.4375 L 0.78125 -8.40625 L 1.796875 -8.40625 L 1.796875 -7.4375 Z M 0.78125 0 L 0.78125 -6.140625 L 1.796875 -6.140625 L 1.796875 0 Z M 0.78125 0 "/></g><g transform="translate(73.216013, 32.570922)"><path style="stroke:none" d="M 3.109375 2.40625 C 2.441406 2.40625 1.90625 2.273438 1.5 2.015625 C 1.101562 1.753906 0.851562 1.378906 0.75 0.890625 L 1.765625 0.75 C 1.835938 1.03125 1.988281 1.242188 2.21875 1.390625 C 2.445312 1.546875 2.753906 1.625 3.140625 1.625 C 4.148438 1.625 4.65625 1.03125 4.65625 -0.15625 L 4.65625 -1.140625 L 4.640625 -1.140625 C 4.453125 -0.742188 4.1875 -0.445312 3.84375 -0.25 C 3.507812 -0.0507812 3.117188 0.046875 2.671875 0.046875 C 1.921875 0.046875 1.367188 -0.203125 1.015625 -0.703125 C 0.660156 -1.203125 0.484375 -1.988281 0.484375 -3.0625 C 0.484375 -4.144531 0.671875 -4.941406 1.046875 -5.453125 C 1.429688 -5.972656 2.007812 -6.234375 2.78125 -6.234375 C 3.21875 -6.234375 3.597656 -6.132812 3.921875 -5.9375 C 4.242188 -5.738281 4.488281 -5.453125 4.65625 -5.078125 L 4.671875 -5.078125 C 4.671875 -5.191406 4.675781 -5.390625 4.6875 -5.671875 C 4.707031 -5.953125 4.722656 -6.109375 4.734375 -6.140625 L 5.703125 -6.140625 C 5.679688 -5.929688 5.671875 -5.503906 5.671875 -4.859375 L 5.671875 -0.171875 C 5.671875 1.546875 4.816406 2.40625 3.109375 2.40625 Z M 4.65625 -3.0625 C 4.65625 -3.5625 4.585938 -3.988281 4.453125 -4.34375 C 4.316406 -4.707031 4.125 -4.984375 3.875 -5.171875 C 3.632812 -5.367188 3.351562 -5.46875 3.03125 -5.46875 C 2.507812 -5.46875 2.128906 -5.28125 1.890625 -4.90625 C 1.660156 -4.53125 1.546875 -3.914062 1.546875 -3.0625 C 1.546875 -2.226562 1.65625 -1.625 1.875 -1.25 C 2.09375 -0.882812 2.472656 -0.703125 3.015625 -0.703125 C 3.335938 -0.703125 3.625 -0.796875 3.875 -0.984375 C 4.125 -1.179688 4.316406 -1.453125 4.453125 -1.796875 C 4.585938 -2.148438 4.65625 -2.570312 4.65625 -3.0625 Z M 4.65625 -3.0625 "/></g><g transform="translate(79.668313, 32.570922)"><path style="stroke:none" d="M 1.5625 -2.84375 C 1.5625 -2.144531 1.707031 -1.601562 2 -1.21875 C 2.289062 -0.84375 2.71875 -0.65625 3.28125 -0.65625 C 3.71875 -0.65625 4.066406 -0.742188 4.328125 -0.921875 C 4.597656 -1.097656 4.78125 -1.320312 4.875 -1.59375 L 5.78125 -1.34375 C 5.40625 -0.375 4.570312 0.109375 3.28125 0.109375 C 2.375 0.109375 1.679688 -0.160156 1.203125 -0.703125 C 0.734375 -1.242188 0.5 -2.046875 0.5 -3.109375 C 0.5 -4.117188 0.734375 -4.894531 1.203125 -5.4375 C 1.679688 -5.976562 2.359375 -6.25 3.234375 -6.25 C 5.035156 -6.25 5.9375 -5.160156 5.9375 -2.984375 L 5.9375 -2.84375 Z M 4.890625 -3.640625 C 4.828125 -4.285156 4.660156 -4.753906 4.390625 -5.046875 C 4.117188 -5.347656 3.726562 -5.5 3.21875 -5.5 C 2.726562 -5.5 2.335938 -5.332031 2.046875 -5 C 1.753906 -4.664062 1.597656 -4.210938 1.578125 -3.640625 Z M 4.890625 -3.640625 "/></g><g transform="translate(86.120613, 32.570922)"><path style="stroke:none" d="M 0.8125 0 L 0.8125 -4.703125 C 0.8125 -5.128906 0.796875 -5.609375 0.765625 -6.140625 L 1.734375 -6.140625 C 1.765625 -5.441406 1.78125 -5.019531 1.78125 -4.875 L 1.796875 -4.875 C 1.960938 -5.40625 2.148438 -5.765625 2.359375 -5.953125 C 2.578125 -6.148438 2.878906 -6.25 3.265625 -6.25 C 3.398438 -6.25 3.535156 -6.226562 3.671875 -6.1875 L 3.671875 -5.25 C 3.535156 -5.289062 3.351562 -5.3125 3.125 -5.3125 C 2.707031 -5.3125 2.382812 -5.128906 2.15625 -4.765625 C 1.9375 -4.398438 1.828125 -3.878906 1.828125 -3.203125 L 1.828125 0 Z M 0.8125 0 "/></g><g transform="translate(89.984062, 32.570922)"><path style="stroke:none" d="M 0.78125 -7.4375 L 0.78125 -8.40625 L 1.796875 -8.40625 L 1.796875 -7.4375 Z M 0.78125 0 L 0.78125 -6.140625 L 1.796875 -6.140625 L 1.796875 0 Z M 0.78125 0 "/></g><g transform="translate(92.561583, 32.570922)"><path style="stroke:none" d="M 2.34375 0.109375 C 1.726562 0.109375 1.265625 -0.0507812 0.953125 -0.375 C 0.648438 -0.695312 0.5 -1.144531 0.5 -1.71875 C 0.5 -2.351562 0.707031 -2.835938 1.125 -3.171875 C 1.539062 -3.515625 2.210938 -3.695312 3.140625 -3.71875 L 4.515625 -3.734375 L 4.515625 -4.078125 C 4.515625 -4.578125 4.410156 -4.929688 4.203125 -5.140625 C 3.992188 -5.359375 3.660156 -5.46875 3.203125 -5.46875 C 2.742188 -5.46875 2.410156 -5.390625 2.203125 -5.234375 C 1.992188 -5.078125 1.867188 -4.832031 1.828125 -4.5 L 0.765625 -4.59375 C 0.941406 -5.695312 1.757812 -6.25 3.21875 -6.25 C 3.988281 -6.25 4.566406 -6.070312 4.953125 -5.71875 C 5.347656 -5.363281 5.546875 -4.851562 5.546875 -4.1875 L 5.546875 -1.546875 C 5.546875 -1.242188 5.582031 -1.015625 5.65625 -0.859375 C 5.738281 -0.703125 5.894531 -0.625 6.125 -0.625 C 6.21875 -0.625 6.328125 -0.640625 6.453125 -0.671875 L 6.453125 -0.03125 C 6.203125 0.03125 5.941406 0.0625 5.671875 0.0625 C 5.296875 0.0625 5.019531 -0.0351562 4.84375 -0.234375 C 4.664062 -0.429688 4.566406 -0.742188 4.546875 -1.171875 L 4.515625 -1.171875 C 4.253906 -0.703125 3.953125 -0.367188 3.609375 -0.171875 C 3.265625 0.015625 2.84375 0.109375 2.34375 0.109375 Z M 2.578125 -0.65625 C 2.953125 -0.65625 3.285156 -0.738281 3.578125 -0.90625 C 3.867188 -1.070312 4.097656 -1.300781 4.265625 -1.59375 C 4.429688 -1.894531 4.515625 -2.203125 4.515625 -2.515625 L 4.515625 -3.03125 L 3.40625 -3 C 2.925781 -3 2.5625 -2.953125 2.3125 -2.859375 C 2.0625 -2.765625 1.867188 -2.625 1.734375 -2.4375 C 1.609375 -2.25 1.546875 -2 1.546875 -1.6875 C 1.546875 -1.363281 1.632812 -1.109375 1.8125 -0.921875 C 1.988281 -0.742188 2.242188 -0.65625 2.578125 -0.65625 Z M 2.578125 -0.65625 "/></g></g></g></svg>